<?xml version="1.0" encoding="UTF-8"?>
<svg id="Layer_1" data-name="Layer 1" xmlns="http://www.w3.org/2000/svg" viewBox="0 0 330.38 417.08">
  <defs>
    <style>
      .cls-1 {
        fill: #8e6d57;
      }

      .cls-1, .cls-2, .cls-3, .cls-4, .cls-5, .cls-6, .cls-7, .cls-8, .cls-9, .cls-10, .cls-11, .cls-12, .cls-13, .cls-14, .cls-15, .cls-16, .cls-17, .cls-18 {
        stroke-width: 0px;
      }

      .cls-2 {
        fill: #ffccf4;
      }

      .cls-3, .cls-19, .cls-20 {
        fill: #000;
      }

      .cls-4 {
        fill: #8cc63f;
      }

      .cls-5 {
        fill: #f15a24;
      }

      .cls-6 {
        fill: #3cb55d;
      }

      .cls-21, .cls-22, .cls-23, .cls-24, .cls-25 {
        fill: none;
        stroke-miterlimit: 10;
      }

      .cls-21, .cls-22, .cls-23, .cls-25 {
        stroke: #000;
      }

      .cls-7 {
        fill: #f7931e;
      }

      .cls-8 {
        fill: #5b5047;
      }

      .cls-22 {
        stroke-width: .5px;
      }

      .cls-19 {
        font-family: LeagueSpartan-Bold, 'League Spartan';
        font-size: 38.33px;
      }

      .cls-19, .cls-20 {
        font-weight: 700;
      }

      .cls-9 {
        fill: #775a46;
      }

      .cls-10 {
        fill: #48bd59;
      }

      .cls-11 {
        fill: #39b54a;
      }

      .cls-12 {
        fill: #82634e;
      }

      .cls-13 {
        fill: #fcb1f8;
      }

      .cls-23 {
        stroke-width: .25px;
      }

      .cls-24 {
        stroke: #020202;
      }

      .cls-24, .cls-25 {
        stroke-width: .1px;
      }

      .cls-14 {
        fill: #c695c6;
      }

      .cls-15 {
        fill: #725840;
      }

      .cls-16 {
        fill: #ffbc6c;
      }

      .cls-17 {
        fill: #2fc247;
      }

      .cls-18 {
        fill: #fcbbf3;
      }

      .cls-20 {
        font-family: DMSans-Bold, 'DM Sans';
        font-size: 18px;
      }
    </style>
  </defs>
  <g>
    <circle class="cls-16" cx="165.19" cy="213" r="164.81"/>
    <path class="cls-3" d="M329.63,213c-.02,17.25-2.69,34.45-8.02,50.86-5.12,15.76-12.65,30.7-22.24,44.21-9.59,13.52-21.24,25.58-34.4,35.64-13.13,10.04-27.77,18.08-43.29,23.76-16.1,5.89-33.1,9.2-50.23,9.84s-34.58-1.39-51.19-6.1c-16.05-4.55-31.38-11.57-45.32-20.74-13.7-9.01-26.04-20.07-36.49-32.7-10.63-12.84-19.31-27.31-25.6-42.75-6.4-15.71-10.33-32.41-11.62-49.33-1.32-17.35.07-34.91,4.2-51.81,3.95-16.19,10.39-31.74,19.03-45.99,8.54-14.09,19.21-26.88,31.52-37.83,12.3-10.94,26.25-20.02,41.23-26.84,15.53-7.07,32.18-11.67,49.14-13.6s34.82-1.22,51.84,2.25c16.46,3.35,32.37,9.26,47.03,17.45,14.34,8.01,27.45,18.16,38.8,30.03,11.42,11.93,21.02,25.58,28.4,40.35,7.5,15.04,12.65,31.22,15.24,47.82,1.31,8.43,1.95,16.95,1.96,25.47,0,.48.75.48.75,0-.02-17.31-2.69-34.59-8.04-51.06s-12.76-30.96-22.44-44.57c-9.56-13.44-21.12-25.43-34.2-35.47-13.21-10.15-27.96-18.28-43.6-24.02-16.15-5.93-33.22-9.27-50.4-9.94s-34.88,1.37-51.62,6.11c-16.11,4.57-31.51,11.62-45.5,20.82s-26.36,20.34-36.92,33.15-19.08,27.06-25.35,42.34S1.83,183.02.5,200.08c-1.35,17.41.04,35.05,4.16,52.02s10.45,32.02,19.16,46.39c8.61,14.21,19.37,27.1,31.8,38.13,12.42,11.02,26.49,20.16,41.62,26.99s31.87,11.51,48.67,13.47c17.39,2.03,35.11,1.3,52.27-2.18,16.52-3.35,32.51-9.26,47.24-17.46s27.82-18.38,39.29-30.41c11.44-11.99,21.08-25.7,28.46-40.54,7.55-15.17,12.72-31.5,15.29-48.25,1.28-8.35,1.91-16.78,1.92-25.23,0-.48-.75-.48-.75,0Z"/>
  </g>
  <g>
    <text class="cls-19" transform="translate(63.78 151.01) rotate(-51.71)"><tspan x="0" y="0">D</tspan></text>
    <text class="cls-19" transform="translate(80.59 130) rotate(-40.1)"><tspan x="0" y="0">E</tspan></text>
    <text class="cls-19" transform="translate(96.5 116.25) rotate(-29.27)"><tspan x="0" y="0">B</tspan></text>
    <text class="cls-19" transform="translate(116.65 104.4) rotate(-16.83)"><tspan x="0" y="0">A</tspan></text>
    <text class="cls-19" transform="translate(142.42 96.65) rotate(-5.49)"><tspan x="0" y="0">T</tspan></text>
    <text class="cls-19" transform="translate(163.94 94.5) rotate(4.81)"><tspan x="0" y="0">E</tspan></text>
    <text class="cls-19" transform="translate(185.16 96.61) rotate(12.26)"><tspan x="0" y="0"> </tspan></text>
    <text class="cls-19" transform="translate(194.59 97.88) rotate(21.11)"><tspan x="0" y="0">D</tspan></text>
    <text class="cls-19" transform="translate(219.73 108.2) rotate(30.32)"><tspan x="0" y="0">I</tspan></text>
    <text class="cls-19" transform="translate(229.47 112.77) rotate(40.35)"><tspan x="0" y="0">N</tspan></text>
    <text class="cls-19" transform="translate(252.7 131.82) rotate(55.93)"><tspan x="0" y="0">O</tspan></text>
    <text class="cls-20" transform="translate(43.04 284.87) rotate(57.22)"><tspan x="0" y="0">R</tspan></text>
    <text class="cls-20" transform="translate(49.45 294.61) rotate(53.97)"><tspan x="0" y="0"> </tspan></text>
    <text class="cls-20" transform="translate(52.11 298.26) rotate(52.17)"><tspan x="0" y="0"> </tspan></text>
    <text class="cls-20" transform="translate(54.88 301.83) rotate(50.35)"><tspan x="0" y="0"> </tspan></text>
    <text class="cls-20" transform="translate(57.82 305.49) rotate(47.23)"><tspan x="0" y="0">E</tspan></text>
    <text class="cls-20" transform="translate(65.24 313.37) rotate(44.07)"><tspan x="0" y="0"> </tspan></text>
    <text class="cls-20" transform="translate(68.49 316.51) rotate(42.24)"><tspan x="0" y="0"> </tspan></text>
    <text class="cls-20" transform="translate(71.85 319.55) rotate(40.39)"><tspan x="0" y="0"> </tspan></text>
    <text class="cls-20" transform="translate(75.42 322.78) rotate(36.47)"><tspan x="0" y="0">G</tspan></text>
    <text class="cls-20" transform="translate(87.14 331.22) rotate(32.55)"><tspan x="0" y="0"> </tspan></text>
    <text class="cls-20" transform="translate(90.96 333.65) rotate(30.7)"><tspan x="0" y="0"> </tspan></text>
    <text class="cls-20" transform="translate(94.86 335.96) rotate(28.86)"><tspan x="0" y="0"> </tspan></text>
    <text class="cls-20" transform="translate(98.83 338.15) rotate(26.92)"><tspan x="0" y="0">I</tspan></text>
    <text class="cls-20" transform="translate(103.29 340.41) rotate(24.99)"><tspan x="0" y="0"> </tspan></text>
    <text class="cls-20" transform="translate(107.41 342.32) rotate(23.16)"><tspan x="0" y="0"> </tspan></text>
    <text class="cls-20" transform="translate(111.58 344.1) rotate(21.32)"><tspan x="0" y="0"> </tspan></text>
    <text class="cls-20" transform="translate(115.93 345.88) rotate(18.12)"><tspan x="0" y="0">S</tspan></text>
    <text class="cls-20" transform="translate(126.56 349.26) rotate(14.93)"><tspan x="0" y="0"> </tspan></text>
    <text class="cls-20" transform="translate(130.95 350.42) rotate(13.11)"><tspan x="0" y="0"> </tspan></text>
    <text class="cls-20" transform="translate(135.37 351.45) rotate(11.28)"><tspan x="0" y="0"> </tspan></text>
    <text class="cls-20" transform="translate(139.95 352.44) rotate(8.12)"><tspan x="0" y="0">T</tspan></text>
    <text class="cls-20" transform="translate(150.91 353.9) rotate(4.95)"><tspan x="0" y="0"> </tspan></text>
    <text class="cls-20" transform="translate(155.44 354.29) rotate(3.12)"><tspan x="0" y="0"> </tspan></text>
    <text class="cls-20" transform="translate(159.95 354.53) rotate(1.3)"><tspan x="0" y="0"> </tspan></text>
    <text class="cls-20" transform="translate(164.66 354.73) rotate(-2)"><tspan x="0" y="0">R</tspan></text>
    <text class="cls-20" transform="translate(176.31 354.21) rotate(-5.32)"><tspan x="0" y="0"> </tspan></text>
    <text class="cls-20" transform="translate(180.81 353.79) rotate(-7.15)"><tspan x="0" y="0"> </tspan></text>
    <text class="cls-20" transform="translate(185.31 353.22) rotate(-8.99)"><tspan x="0" y="0"> </tspan></text>
    <text class="cls-20" transform="translate(190.04 352.59) rotate(-12.62)"><tspan x="0" y="0">A</tspan></text>
    <text class="cls-20" transform="translate(202.78 349.58) rotate(-16.26)"><tspan x="0" y="0"> </tspan></text>
    <text class="cls-20" transform="translate(207.14 348.31) rotate(-18.11)"><tspan x="0" y="0"> </tspan></text>
    <text class="cls-20" transform="translate(211.44 346.9) rotate(-19.96)"><tspan x="0" y="0"> </tspan></text>
    <text class="cls-20" transform="translate(215.89 345.36) rotate(-23.16)"><tspan x="0" y="0">T</tspan></text>
    <text class="cls-20" transform="translate(226.02 340.92) rotate(-26.37)"><tspan x="0" y="0"> </tspan></text>
    <text class="cls-20" transform="translate(230.08 338.9) rotate(-28.2)"><tspan x="0" y="0"> </tspan></text>
    <text class="cls-20" transform="translate(234.06 336.76) rotate(-30.03)"><tspan x="0" y="0"> </tspan></text>
    <text class="cls-20" transform="translate(237.98 334.49) rotate(-31.94)"><tspan x="0" y="0">I</tspan></text>
    <text class="cls-20" transform="translate(242.23 331.84) rotate(-33.84)"><tspan x="0" y="0"> </tspan></text>
    <text class="cls-20" transform="translate(245.98 329.33) rotate(-35.93)"><tspan x="0" y="0"> </tspan></text>
    <text class="cls-20" transform="translate(249.59 326.73) rotate(-37.4)"><tspan x="0" y="0"> </tspan></text>
    <text class="cls-20" transform="translate(253.5 323.93) rotate(-41.33)"><tspan x="0" y="0">O</tspan></text>
    <text class="cls-20" transform="translate(264.44 314.06) rotate(-45.29)"><tspan x="0" y="0"> </tspan></text>
    <text class="cls-20" transform="translate(267.62 310.84) rotate(-47.13)"><tspan x="0" y="0"> </tspan></text>
    <text class="cls-20" transform="translate(270.72 307.5) rotate(-48.98)"><tspan x="0" y="0"> </tspan></text>
    <text class="cls-20" transform="translate(273.95 303.97) rotate(-52.7)"><tspan x="0" y="0">N</tspan></text>
    <circle class="cls-3" cx="300.15" cy="217.8" r="6.66"/>
    <circle class="cls-3" cx="30.18" cy="217.8" r="6.66"/>
  </g>
  <g>
    <g>
      <path class="cls-18" d="M274.16,209.88h0c-3.12-.71-6.41.11-9.56-.42-.28-.04-.57-.11-.74-.33-.09-.11-.13-.24-.16-.37-.1-.39-.1-.8-.1-1.2,0-.29,0-.59.14-.84.29-.55,1.04-.62,1.66-.62,2.87.01,5.74.16,8.6.47h.03c.07,1.1.11,2.2.14,3.31Z"/>
      <path class="cls-18" d="M246.82,232.05c-4.07.03-8.14-.12-12.2-.44-.48-.04-1.01-.11-1.31-.49-.22-.28-.25-.67-.24-1.03,0-.9.11-1.79.32-2.67.03-.08.05-.18.11-.24.12-.14.32-.14.5-.13,2.08.1,4.15.2,6.23.3.46.02,1.03-.01,1.25-.42.19-.35-.02-.81-.35-1.04-.33-.22-.75-.27-1.14-.32-.44-.05-.87-.1-1.31-.15-.06-.01-.13-.02-.19-.06-.07-.04-.11-.13-.12-.22-.11-.43.05-.95-.22-1.31-.22-.3-.64-.36-1.01-.4-2.02-.21-4.06-.43-6.09-.37-.52.02-1.05.05-1.54-.1s-.96-.52-1.05-1.03c-.03-.16-.02-.33-.01-.49.04-.56.11-1.2.56-1.54.34-.25.79-.26,1.21-.26,1.97,0,3.95.03,5.92.08h0c4.88.09,9.75.36,14.61.81.19.02.39.04.52.18.13.13.15.33.17.51.03.42.06.85-.02,1.26-.09.42-.32.82-.69,1.02-.35.19-.77.17-1.16.15-.45-.02-.9-.04-1.35-.07-.27-.01-.58-.01-.78.18-.29.28-.12.82.23,1.03.35.22.79.2,1.19.17.82-.04,1.65-.09,2.46.03l.19.11c-1.37,2.42-2.83,4.79-4.51,7.02-.01.01-.02.03-.03.04l-.15-.11Z"/>
      <path class="cls-14" d="M207.37,253.33c-.72-8.63-.97-17.3-.76-25.96.02-.49.03-.97.04-1.45h.09c2.72,2.5,5.69,4.71,8.85,6.6.32.19.69.38,1.04.28.21-.07.37-.23.53-.38,2.21-2.21,4.42-4.42,6.63-6.62.22-.22.49-.46.8-.42.18.02.34.14.47.26,1,.89,1.58,2.14,2.15,3.35,2.15,4.57,4.55,9.13,8.11,12.71l.04.11c4.68-1.98,8.54-5.59,11.61-9.65.01-.01.02-.03.03-.04,1.68-2.23,3.14-4.6,4.51-7.02,1.15-2.02,2.24-4.08,3.34-6.12.28-.51.68-1.1,1.26-1.07.35.02.63.25.9.48,1.52,1.33,3.05,2.65,4.58,3.97.17.16.36.32.59.36.26.05.53-.07.76-.19,1.47-.76,2.62-1.99,3.73-3.22,2.58-2.87,5.05-5.84,7.39-8.9h.11c.03.86.04,1.72.04,2.59,0,28.84-11.2,55.07-29.5,74.57l-.48-.44c4.16-11.73,5.49-24.45,3.85-36.79-3.16,8.93-10.51,16.29-19.44,19.47-1.79.64-3.68,1.12-5.58,1.04-2.26-.09-4.41-.96-6.44-1.96-2.46-1.21-4.82-2.64-7.04-4.26l.12-.17c-1.58-3.46-2.01-7.33-2.33-11.13Z"/>
      <path class="cls-13" d="M215.59,232.52c-3.16-1.89-6.13-4.1-8.85-6.6h-.09c.19-5.92.58-11.83,1.19-17.72l.28.03c5.55-.09,11.1.04,16.64.37.3.02.62.04.86.23.54.41.23,1.36-.38,1.66-.61.29-1.33.14-1.99-.02-.66-.17-1.37-.34-2-.09-1.07.44-1.22,2.18-.24,2.79.47.29,1.05.32,1.6.33,5.25.16,10.51.31,15.76.47.32.01.64.01.93-.11.92-.38.86-1.84.11-2.5s-1.83-.74-2.82-.79c-1.86-.09-3.71-.18-5.56-.27-.26-.36-.04-.9.34-1.12.38-.23.85-.22,1.29-.21,4.89.12,9.79.24,14.69.36.83.02,1.72.03,2.41-.43.7-.46,1.01-1.57.4-2.12-.3-.27-.73-.34-1.13-.39-1.7-.2-3.42-.25-5.13-.14-.35.02-.71.05-1.03-.08-.33-.13-.6-.47-.53-.81,5.07-.28,10.15-.32,15.23-.12l.1-.12c1.24.04,2.42-1,2.54-2.24.02-.14.03-.3.14-.39.06-.06.16-.08.25-.09.97-.12,1.96-.09,2.94-.05,3.26.13,6.53.25,9.79.37l.39-.03c.13,1.29.23,2.58.3,3.88h-.03c-2.86-.31-5.73-.46-8.6-.47-.62,0-1.37.07-1.66.62-.14.25-.14.55-.14.84,0,.4,0,.81.1,1.2.03.13.07.26.16.37.17.22.46.29.74.33,3.15.53,6.44-.29,9.56.42h0c.01.17.02.35.01.53h-.11c-2.34,3.06-4.81,6.03-7.39,8.9-1.11,1.23-2.26,2.46-3.73,3.22-.23.12-.5.24-.76.19-.23-.04-.42-.2-.59-.36-1.53-1.32-3.06-2.64-4.58-3.97-.27-.23-.55-.46-.9-.48-.58-.03-.98.56-1.26,1.07-1.1,2.04-2.19,4.1-3.34,6.12l-.19-.11c-.81-.12-1.64-.07-2.46-.03-.4.03-.84.05-1.19-.17-.35-.21-.52-.75-.23-1.03.2-.19.51-.19.78-.18.45.03.9.05,1.35.07.39.02.81.04,1.16-.15.37-.2.6-.6.69-1.02.08-.41.05-.84.02-1.26-.02-.18-.04-.38-.17-.51-.13-.14-.33-.16-.52-.18-4.86-.45-9.73-.72-14.61-.8h0c-1.97-.06-3.95-.09-5.92-.09-.42,0-.87.01-1.21.26-.45.34-.52.98-.56,1.54-.01.16-.02.33.01.49.09.51.56.88,1.05,1.03s1.02.12,1.54.1c2.03-.06,4.07.16,6.09.37.37.04.79.1,1.01.4.27.36.11.88.22,1.31.01.09.05.18.12.22.06.04.13.05.19.06.44.05.87.1,1.31.15.39.05.81.1,1.14.32.33.23.54.69.35,1.04-.22.41-.79.44-1.25.42-2.08-.1-4.15-.2-6.23-.3-.18,0-.38,0-.5.13-.06.06-.08.16-.11.24-.21.88-.32,1.77-.32,2.67-.01.36.02.75.24,1.03.3.38.83.45,1.31.49,4.06.32,8.13.47,12.2.44l.15.11c-3.07,4.06-6.93,7.67-11.61,9.65l-.04-.11c-3.56-3.58-5.96-8.14-8.11-12.71-.57-1.21-1.15-2.46-2.15-3.35-.13-.12-.29-.24-.47-.26-.31-.04-.58.2-.8.42-2.21,2.2-4.42,4.41-6.63,6.62-.16.15-.32.31-.53.38-.35.1-.72-.09-1.04-.28Z"/>
      <path class="cls-14" d="M114.68,309.63c-31.16-16.31-53.45-47.26-57.74-83.72l.39-.05c3.87-2.39,6.44-6.36,9.09-10.06.68-.94,1.48-1.94,2.61-2.13.75-.13,1.52.12,2.21.45.82.39,1.58.89,2.35,1.37,4.95,3.07,10.25,5.56,15.78,7.39h.14c.09,2.42.25,4.85.5,7.28,1.17,13.51,2.47,27.28,7.83,39.73,2.6,6.06,6.12,11.67,9.63,17.24,2.65,4.19,5.43,8.48,8.73,12.17-.96,3.27-1.43,6.7-1.4,10.11l-.12.22Z"/>
      <path class="cls-18" d="M172.6,172.46c.02.27.07.56-.02.81h-.2c-.02.64-.02,1.28,0,1.92.02.65.07,1.35.5,1.83.53.59,1.43.64,2.22.65,3.26.02,6.52.04,9.77.07.71,0,1.54-.05,1.94-.63.16-.24.23-.53.28-.82.11-.62.18-1.26.2-1.9.02-.38.02-.78-.18-1.11-.18-.3-.49-.49-.81-.61-.78-.3-1.64-.23-2.48-.22-3.52.04-7.01-1-10.53-.8-.14,0-.29.02-.4.09-.24.14-.3.45-.29.72ZM88.8,135.23c4.48-4.41,9.35-8.44,14.54-12.01l.09.14c.05.7.1,1.39.15,2.09.02.32.06.67.29.89.23.21.56.23.87.24,5.12.16,10.24.17,15.35.02.57-.02,1.3.1,1.39.65.06.37-.25.71-.6.82s-.73.06-1.1,0c-1.74-.24-3.5-.32-5.26-.26-.38.02-.8.06-1.04.36-.14.16-.19.37-.23.58-.14.68-.21,1.38-.21,2.07-.01.12,0,.26.06.36.13.22.44.22.69.2,6.24-.44,12.49.36,18.75.4.22,0,.45,0,.63-.14.24-.18.26-.54.25-.85-.01-1.35-.06-2.71-.12-4.07-.01-.08-.01-.17-.06-.25-.09-.16-.3-.18-.48-.19-1.87-.08-3.74-.15-5.61-.23-.16-.01-.32-.02-.43-.13-.15-.15-.11-.4-.11-.61.01-.6-.44-1.18-1.03-1.32-.35-.08-.71-.02-1.07,0s-.75-.02-1.02-.26c-.26-.24-.31-.74-.01-.93.16-.1.35-.09.53-.09,2.28.08,4.56.17,6.84.25.2,0,.4.01.58-.08.26-.13.38-.44.47-.72.22-.71.36-1.45.4-2.19,0-.21.02-.42-.07-.6-.21-.42-.77-.49-1.24-.49-6.34-.1-12.69-.2-19.03-.3-.1,0-.21,0-.3.04l-.26-.47c9.8-5.58,20.54-9.67,31.93-11.99l.05.28c-.09.82-.12,1.78.51,2.31.39.32.93.38,1.44.42,2.98.22,5.97.21,8.95-.04.62-.06,1.41-.03,1.65.55.14.33.03.74.24,1.04.2.29.6.33.95.35,2.75.14,5.5.16,8.25.08.13,0,.27,0,.37-.09.16-.11.19-.33.2-.53.05-.95.09-1.89.11-2.84,0-.17,0-.34-.09-.48-.1-.16-.29-.23-.48-.29-1.94-.58-4.03-.14-6.05-.32-.11,0-.23-.02-.31-.09-.09-.08-.11-.21-.12-.33-.06-.51-.04-1.03.06-1.54l-.03-.49c2.04-.12,4.09-.18,6.16-.18,1.95,0,3.88.05,5.8.15v.23c.06.96.13,1.93.19,2.89.03.43.11.93.48,1.14.18.1.39.1.6.11,3.84.12,7.69.23,11.53.35.49.01,1,.03,1.41.29s.65.84.39,1.24c-.46.7-1.6.11-2.36.45-.48.22-.72.79-.69,1.32.02.53.25,1.02.48,1.5.09.18.19.37.37.46.1.05.22.05.34.06,6.32.24,12.64.48,18.96.73.26,0,.55,0,.74-.17.17-.17.19-.44.19-.68.02-.79-.02-1.57-.11-2.35-.01-.16-.04-.33-.16-.44-.03-.02-.06-.04-.1-.06l.13-.34c5.23,1.95,10.28,4.3,15.09,7.01l-.19.34c-.02.97.08,1.95.29,2.91.09.41.22.84.52,1.14.41.41,1.05.47,1.64.51,1.17.07,2.34.14,3.51.22.16.01.31.02.44.11.24.16.24.5.3.78.21.9,1.22,1.38,2.14,1.47s1.86-.06,2.75.18l.14-.19c1.81,1.34,3.58,2.73,5.3,4.18l-.59.7c-3-.72-6.2.5-8.56,2.49-2.35,1.99-3.99,4.67-5.52,7.35h-.01c.09-.41.14-.83.14-1.25.02-1.09-.26-2.17-.62-3.21-1.31-3.8-3.63-7.25-6.66-9.89-.87-.76-1.91-1.72-1.67-2.86-4.5-3.4-10.39-4.9-15.97-4.06-3.53.53-6.85,1.93-10.26,2.99-.53.17-1.41.01-1.24-.52-3.85.7-7.54,2.27-10.72,4.54l-.11-.16c-2.65-.02-5.3-.26-7.91-.72-.14-.02-.29-.05-.38-.17-.08-.1-.09-.24-.09-.37v-1.09c0-.21,0-.43.12-.6.19-.29.61-.32.96-.31,2.37.04,4.74.03,7.11-.04.26,0,.55-.02.74-.19.17-.15.24-.38.29-.6.15-.65.21-1.33.17-2-.01-.21-.03-.43-.15-.61-.23-.32-.69-.36-1.09-.36-2,0-4.01,0-6.01,0-.16,0-.34-.01-.44-.13-.09-.09-.11-.23-.15-.35-.15-.38-.59-.53-.99-.62-1.29-.3-2.63-.42-3.95-.34-.14,0-.3.02-.38.13-.06.08-.06.2-.06.3.01.42.01.85.02,1.27l-.17.26c-6.58-.04-13.16-.08-19.73-.12-.28,0-.58,0-.79.18-.14.11-.22.28-.27.45-.28.97.42,2.01,1.33,2.46.9.45,1.96.45,2.97.45,3.18-.01,6.36-.03,9.55-.04.63,0,1.4.09,1.65.67.1.23.09.52.26.71.18.2.48.23.75.24.99.03,1.97.07,2.96.11.5.01,1.03.04,1.47.28.45.24.78.77.62,1.25-.22.66-1.1.77-1.79.75-2.23-.04-4.46-.09-6.68-.14-.26-.01-.54,0-.73.17s-.21.45-.23.71c-.06.9-.06,1.94.62,2.53.52.46,1.27.5,1.96.51,6.69.12,13.38.23,20.07.35.28,0,.59,0,.81-.19.46-.41.01-1.2.21-1.79l-.09-.44c4.7-.97,9.43-1.75,14.19-2.32,1.43-.17,2.86-.33,4.3-.38,1.07-.04,2.16,0,3.17.32.78.25,1.5.68,2.17,1.16,2.19,1.57,3.96,3.67,6.12,5.28,1.28.95,2.7,1.73,3.84,2.86,2.57,2.53,3.29,6.35,3.83,9.91l-.18.06c-.62-1.81-1.71-3.49-3.02-4.9-1.98-2.11-4.46-3.68-7.01-5.04-3.52-1.89-7.3-3.46-11.28-3.78-3.34-.27-6.69.35-9.92,1.24-3.61,1-7.32,2.49-9.55,5.5-.84,1.14-1.42,2.44-1.94,3.75-1.47,3.67-2.48,7.51-4.08,11.11-.54,1.21-1.15,2.41-1.86,3.54l-.19-.12c-.54.02-1.05.18-1.56.34-.24.07-.51.17-.61.4-.05.11-.05.23-.05.35-.01.62-.02,1.23-.04,1.85l.2.18c-.79.86-1.66,1.64-2.62,2.29l-.07-.11c-2.38-.03-4.77-.06-7.15-.09-.18,0-.38.01-.51.14-.08.09-.11.21-.13.33-.28,1.52-.12,3.11.44,4.55.03.09.07.18.13.25.06.08.14.14.23.2,1.76,1.15,4.04.87,6.13.74,2.93-.18,5.87,0,8.79.19,3.93.26,7.87.51,11.81.38.25,0,.54-.04.7-.24.15-.17.13-.42.12-.65-.08-.91-.15-1.82-.22-2.73-.03-.37-.08-.79-.36-1.04-.26-.23-.64-.25-.99-.26-.68-.02-1.36-.03-2.04-.05-.43-.01-.89-.03-1.22-.3-.28-.25-.35-.76-.09-.99.03-.03.07-.06.12-.08.13-.06.27-.05.4-.05,3.43.11,6.86.44,10.24.99.74.12,1.7.13,1.99-.55.07-.2.08-.41.08-.62-.01-.74-.09-1.48-.23-2.21-.03-.2-.08-.41-.21-.57-.21-.25-.57-.3-.9-.34-3.49-.36-7-.57-10.51-.64l-.14-.19c1.61-1.16,3.22-2.32,4.83-3.49-.23.23-.24.65,0,.88,2.56-1,4.07-3.57,5.94-5.59,1.87-2.03,4.25-3.6,6.85-4.54-.09.61-.02,1.24.2,1.81,2.54-2.16,5.9-3.33,9.22-3.2,3.33.13,6.59,1.54,8.96,3.89l-.09.35c-1.28-.36-2.64-.43-3.94-.17-.42.08-.84.2-1.22.4-.52.28-.95.71-1.25,1.22-.67,1.1-.69,2.56-.07,3.69.16.28.35.54.57.77l-.3.4c-1.23,1.93-2.35,3.92-3.36,5.96l-.21-.1c-1.59.03-3.17.06-4.75.09-.2.01-.4.01-.58.09-.4.18-.54.66-.64,1.08-.29,1.2-.58,2.44-.31,3.63.05.19.1.38.24.52.2.21.52.24.81.25.86.04,1.71.03,2.56-.04l.28.12c-2.35,5.57-4.21,11.38-5.97,17.17-.02.08-.05.16-.07.24-.22.71-.43,1.42-.64,2.13l-.39-.12c-6.82.34-13.64-.47-20.47-.51-.81,0-1.72.04-2.28.63-.57.6-.56,1.52-.46,2.34.03.28.09.59.33.74.14.09.32.1.49.11,5.83.24,11.68-.1,17.5.29.19.01.39.03.55.13.36.23.37.73.35,1.14,0,.11,0,.23-.05.34-.03.1-.08.2-.17.27-.14.11-.33.12-.51.12-2.83-.02-5.66-.04-8.48-.05-.38-.01-.76-.01-1.11.11-.89.31-1.36,1.31-1.47,2.24-.04.35-.02.75.25.97.19.16.46.19.71.2l12.12.78.26.07c-.37,1.36-.73,2.72-1.08,4.08l-.32-.08c-4.89-.13-9.79-.25-14.68-.38-.89-.02-1.98.08-2.34.89-.25.55-.06,1.3-.51,1.71-.29.27-.73.26-1.13.24-9.17-.53-18.34-.93-27.52-1.19-.37-.02-.8,0-1.03.3-.12.16-.13.37-.08.56l-2.94.42c-.15-.39-.48-.72-.86-.92-.56-.28-1.21-.31-1.83-.33-2.21-.09-4.42-.17-6.64-.26-.82-.03-1.87-.23-2.04-1.04-.08-.36.04-.78-.18-1.08-.18-.24-.5-.29-.79-.33-3.39-.43-6.81-.54-10.22-.34h-.24c.09-2.8.34-5.59.65-8.38h.01l.14.02c4.44-.19,8.89-.04,13.3.45,2.37.26,4.75.62,7.11.31.21-.02.45-.08.55-.26.06-.12.06-.25.05-.38-.05-1.03-.2-2.22-1.08-2.75-1.16-.7-2.89.19-3.91-.7-.14-.12-.26-.28-.26-.46,0-.45.6-.58,1.04-.57,4.1.06,8.21.12,12.31.18.22.01.47.02.66.14.09.06.16.14.2.22.18.39-.07.99-.51,1.19-.53.23-1.15.06-1.72-.1-.56-.17-1.19-.32-1.72-.05-.66.34-.85,1.29-.5,1.96.34.67,1.07,1.06,1.81,1.2.73.13,1.49.05,2.24-.01,2.56-.19,5.13-.09,7.7.01,3,.12,5.99.24,8.99.35.3.02.65.01.84-.23.13-.16.15-.38.16-.59.03-.96-.01-2.06-.77-2.64-.37-.29-.85-.39-1.32-.47-3.38-.58-6.84-.64-10.24-.17-.49.07-1.01.15-1.46-.07-.28-.13-.5-.42-.55-.71-.03-.18,0-.36.13-.51.45-.54,1.34,0,2.02-.15.77-.18,1.04-1.13,1.01-1.91-.02-.63-.16-1.29-.61-1.72-.56-.53-1.41-.57-2.17-.57-7.57,0-15.14-.01-22.71-.01-.67,0-1.57-.22-1.57-.89.01-.4.39-.71.79-.78.39-.07.79.03,1.19.12,1.02.21,2.07.28,3.11.2.72-.06,1.49-.21,2-.73.51-.51.6-1.48.01-1.91-.29-.21-.68-.24-1.05-.26-4.46-.26-8.92-.37-13.39-.34l-.15-.02c.2-1.59.39-3.17.59-4.76h.05c4.31-1.31,8.96-.71,13.43-1.35,5.08-.73,10.01-3.22,13.14-7.29,3.14-4.08,4.25-9.79,2.32-14.55-.51-1.26-1.21-2.41-2.05-3.46l.25-.2c1.72.22,3.46.34,5.19.34.25,0,.54-.02.68-.23.08-.12.09-.27.09-.42.03-.88.07-1.77-.03-2.65-.05-.39-.13-.8-.43-1.06-.27-.24-.67-.29-1.03-.32-3.66-.33-7.33-.59-11-.79l-.13.24c-.58-.31-1.17-.59-1.77-.84-6.65-2.84-14.33-3.17-21.19-.92-1.2.4-2.38.87-3.52,1.42l-.1-.21c-3.21-.17-6.42-.35-9.63-.52-.34-.02-.71-.05-.94-.29-.51-.52-.08-1.62-.71-1.97-.15-.07-.32-.09-.48-.1-4.15-.28-8.3-.38-12.46-.31ZM165.3,142.78c.27-.97.53-1.97.48-2.98-.06-1.01-.48-2.05-1.32-2.61-.69-.46-1.57-.55-2.39-.48-.83.06-1.64.26-2.47.3-.25.02-.51.02-.72.14-.16.1-.28.28-.28.46l-.23.03c-.01,1.2.04,2.39.16,3.58.07.67.19,1.41.71,1.85.4.33.94.42,1.45.47,1.22.13,2.46.16,3.69.08.16,0,.34-.02.48-.1.25-.15.36-.46.44-.74Z"/>
      <path class="cls-2" d="M126.61,125.32c0,.21-.04.46.11.61.11.11.27.12.43.13,1.87.08,3.74.15,5.61.23.18.01.39.03.48.19.05.08.05.17.06.25.06,1.36.11,2.72.12,4.07,0,.31-.01.67-.25.85-.18.14-.41.14-.63.14-6.26-.04-12.51-.84-18.75-.4-.25.02-.56.02-.69-.2-.06-.1-.07-.24-.06-.36,0-.69.07-1.39.21-2.07.04-.21.09-.42.23-.58.24-.3.66-.34,1.04-.36,1.76-.06,3.52.02,5.26.26.37.05.75.1,1.1,0s.66-.45.6-.82c-.09-.55-.82-.67-1.39-.65-5.11.15-10.23.14-15.35-.02-.31,0-.64-.03-.87-.24-.23-.22-.27-.57-.29-.89-.05-.7-.1-1.39-.15-2.09l-.09-.14c.37-.26.74-.52,1.11-.76,1.88-.02,3.77-.04,5.65-.05.43,0,.95-.06,1.17-.44.1-.17.11-.38.12-.58.03-.79.07-1.59.1-2.38.01-.11.02-.24.09-.32.03-.03.05-.04.08-.06.09-.04.2-.04.3-.04,6.34.1,12.69.2,19.03.3.47,0,1.03.07,1.24.49.09.18.08.39.07.6-.04.74-.18,1.48-.4,2.19-.09.28-.21.59-.47.72-.18.09-.38.08-.58.08-2.28-.08-4.56-.17-6.84-.25-.18,0-.37-.01-.53.09-.3.19-.25.69.01.93.27.24.66.28,1.02.26s.72-.08,1.07,0c.59.14,1.04.72,1.03,1.32Z"/>
      <path class="cls-14" d="M184.82,219.51c.13.09.25.19.38.28l.15.02c-1.2,8.55-1.63,17.15-.84,25.77l-.11.25c-2.93-.95-5.99-1.6-9.09-1.99-4.14-.54-8.37-.64-12.51-.45-.21.01-.41.02-.62.03-4.52.24-9.08.8-13.5,1.83-6.08,1.4-11.9,3.7-16.99,7.27l-.37-.29c-7.76-9.73-11.51-22.09-13.51-34.68l.52-.05c1.66-3.18,3.81-6.11,6.35-8.63.33-.32.71-.66,1.16-.65.51.02.89.45,1.21.86,4.9,6.27,10.14,12.28,15.67,18,1.08,1.12,2.21,2.25,3.62,2.89,4.4,2,9.86-1.33,14.3.59,1.87.81,3.24,2.44,4.84,3.69,1.61,1.26,3.84,2.17,5.66,1.26,1.06-.53,1.76-1.57,2.41-2.57,2.79-4.26,5.59-8.53,8.38-12.8.35-.54.73-1.1,1.33-1.34.59-.24,1.43.04,1.52.67l.04.04Z"/>
      <path class="cls-7" d="M215.5,150.48c-.9.41-1.79.86-2.65,1.35-.99.56-1.98,1.19-2.63,2.12-.24.35-.42.75-.52,1.17l-.71-.1c-.97-.02-1.91-.46-2.59-1.15-.22-.23-.41-.49-.57-.77-.62-1.13-.6-2.59.07-3.69.3-.51.73-.94,1.25-1.22.38-.2.8-.32,1.22-.4,1.3-.26,2.66-.19,3.94.17.51.14,1.01.33,1.48.56.29.14.57.3.84.47.35.23.73.56.71.98l.16.51Z"/>
      <path class="cls-18" d="M90.4,199.02c-.18,1.92-.35,3.85-.49,5.78l-1.61-.11c0-.11-.01-.22-.02-.33-.02-.15-.04-.31-.13-.42-.14-.17-.39-.18-.61-.18-1.53-.01-3.06-.06-4.59-.15-.17-.01-.35-.03-.48-.14-.15-.12-.19-.33-.21-.52-.08-.6-.14-1.2-.17-1.8-.05-.83.08-1.86.86-2.15.24-.1.51-.1.77-.09,2.09.02,4.18.05,6.26.07l.42.04Z"/>
      <path class="cls-18" d="M145.93,211.73c-.17-.14-.12-.45.07-.6.2-.16.47-.16.73-.16,8.04.09,16.09.18,24.14.27.37,0,.8.03,1.04.31.14.17.19.39.23.6.18.99.15,2.03-.09,3.01-.04.16-.09.34-.22.43s-.29.1-.44.1c-.93.02-1.85.03-2.77.04-.11.01-.23.01-.29.1-.06.06-.06.15-.06.23,0,.28.01.56.02.84.01.29.05.62.29.78.15.1.33.1.5.11,2.24.07,4.48.27,6.69.59.29.04.63.12.76.38.07.15.05.33.03.49-.08.75-.16,1.5-.25,2.25-.03.24-.06.51-.24.67-.16.15-.38.18-.59.21-4.14.51-8.32.44-12.49.37-2.04-.03-4.07-.07-6.11-.1-.14,0-.28-.01-.38-.09-.11-.09-.14-.23-.17-.36-.2-.94-.3-1.91-.29-2.87,0-.27.04-.6.27-.73.14-.08.3-.07.45-.06.91.05,1.81.1,2.72.14.37.02.79.03,1.07-.21.44-.39.24-1.18-.24-1.52s-1.11-.36-1.7-.36c-3.8-.04-7.59-.11-11.39-.2-.27,0-.58-.03-.77-.23-.13-.13-.18-.32-.22-.5-.3-1.29-.41-2.61-.3-3.93Z"/>
      <path class="cls-12" d="M194.1,183.28c.02-.08.05-.16.07-.24l.09.03c.01.06.02.11.04.17.92,4.58,3.37,8.84,6.89,11.92.86.75,1.78,1.44,2.79,1.96,1.42.72,3.01,1.09,4.6,1.09l.27.17c-1.2,1.93-2.94,3.47-4.66,4.97-3.01,2.6-6.21,5.2-10.05,6.24-2.14.58-4.38.64-6.6.7l-.43.09-.12-.03c.75-3.7,1.61-7.39,2.56-11.06.35-1.36.71-2.72,1.08-4.08.36-1.31.73-2.63,1.1-3.94.56-1.96,1.14-3.91,1.73-5.86.21-.71.42-1.42.64-2.13Z"/>
      <path class="cls-12" d="M194.3,183.24c3.18.56,6.48.5,9.61-.28,3.16-.79,6.14-2.34,8.52-4.56l.08-.08h.01s.31.08.31.08c-.26,1.12-.51,2.24-.75,3.37-.67,3.05-1.27,6.11-1.81,9.18-.25,1.39-.49,2.79-.7,4.19-.17,1.03-.33,2.06-.48,3.09l-.13-.02c-.04.06-.07.12-.11.17l-.27-.17c-1.59,0-3.18-.37-4.6-1.09-1.01-.52-1.93-1.21-2.79-1.96-3.52-3.08-5.97-7.34-6.89-11.92Z"/>
      <path class="cls-17" d="M168.15,248.97c.57-.06,1.14-.28,1.51-.72.1-.12.18-.26.2-.41.03-.23-.09-.46-.26-.62-.18-.15-.4-.24-.62-.31-.47-.14-.96-.2-1.45-.19-.27.01-.57.06-.74.27-.3.05-.58.2-.8.42-.17.17-.29.39-.32.63-.02.24.07.5.27.64.14.1.32.13.5.16.56.09,1.14.18,1.71.13ZM169.34,250.95c-1.11,0-2.22.66-2.73,1.66-.13.24-.22.5-.19.77.05.54.57.92,1.08,1.12.65.26,1.35.36,2.04.41,2.33.18,4.69-.15,7.02.08.51.05,1.07.11,1.48-.18.57-.41.53-1.33.09-1.88-.43-.55-1.13-.81-1.79-1.03-2.18-.71-4.46-1.17-6.74-.99l-.25.04h-.01ZM158.33,254.09v.04c-1.28-.14-2.61.35-3.49,1.3-.26.29-.48.61-.76.87-.67.61-1.62.8-2.53.85s-1.83-.02-2.72.16-1.78.69-2.11,1.54c-.08.18-.12.4,0,.56.1.15.28.2.45.25,2.12.51,4.34.51,6.5.21,1.86-.25,3.73-.75,5.28-1.81.63-.43,1.21-.98,1.46-1.7s.07-1.63-.58-2.03c-.43-.28-.98-.28-1.49-.24ZM90.01,230.16c-.25-2.43-.41-4.86-.5-7.29-.15-4.03-.12-8.07.05-12.1.09-1.99.21-3.98.35-5.97.14-1.93.31-3.86.49-5.78.23-2.44.49-4.88.78-7.32.14-1.26.28-2.52.44-3.78.1-.84.2-1.67.3-2.5.18-1.42.35-2.85.53-4.27.13-1.01.26-2.03.39-3.04.14-1.08.28-2.17.44-3.25.46-3.39,1-6.77,1.73-10.1.18-.8.36-1.6.56-2.4.13-.52.26-1.03.4-1.54.17-.65.36-1.3.57-1.94.32-1.08.69-2.16,1.1-3.21.67-1.75,1.47-3.45,2.42-5.07.02-.03.03-.06.05-.09.92-1.55,1.98-3.03,3.17-4.39,2.72-3.13,6.09-5.71,9.84-7.49,1.14-.55,2.32-1.02,3.52-1.42,6.86-2.25,14.54-1.92,21.19.92.6.25,1.19.53,1.77.84,2.46,1.27,4.72,2.97,6.41,5.09.84,1.05,1.54,2.2,2.05,3.46,1.93,4.76.82,10.47-2.32,14.55-3.13,4.07-8.06,6.56-13.14,7.29-4.47.64-9.12.04-13.43,1.36h-.05c-.2,1.58-.39,3.16-.59,4.75-.34,2.75-.69,5.49-1.03,8.24-.02.14-.04.29-.05.43-.09.67-.17,1.35-.25,2.02-.12.97-.24,1.95-.34,2.92h-.01c-.31,2.79-.56,5.58-.65,8.37-.07,1.52-.08,3.05-.03,4.57.07,2.28.27,4.54.51,6.81.3,2.9.67,5.82,1.13,8.72,2,12.59,5.75,24.95,13.51,34.68l.37.29c5.09-3.57,10.91-5.87,16.99-7.27l.1.42c-.53,1.57-.36,3.52.94,4.54.62.5,1.43.71,2.22.83,3.27.52,6.72-.24,9.47-2.08.89-.59,1.73-1.34,2.12-2.33.38-1,.17-2.29-.72-2.88v-.36c4.13-.19,8.36-.09,12.5.45l-.03.22c-.55.53-1.1,1.21-1.01,1.97.08.67.65,1.18,1.21,1.55,3.02,1.95,6.92,1.79,10.28,3.06.74.28,1.47.63,2.25.77.79.13,1.67.01,2.24-.55.56-.56.64-1.62.01-2.11l.2-.39c2.12,1.1,4.12,2.43,5.98,3.99,2.95,2.48,5.41,5.48,8.19,8.15,1.56,1.49,3.21,2.87,4.95,4.13,2.22,1.62,4.58,3.05,7.04,4.26,2.03,1,4.18,1.87,6.44,1.96,1.9.08,3.79-.4,5.58-1.04,8.93-3.18,16.28-10.54,19.44-19.47,1.64,12.34.31,25.06-3.85,36.79l.48.44c-14.53,15.5-33.55,26.75-54.98,31.68v-.05c-.97-1.71-1.55-3.63-1.69-5.57-.01-.08-.02-.17-.02-.25l-.07-.03c-.01-4.58-3.29-8.6-7.16-11.06-1.02-.65-2.11-1.23-3.27-1.57-1.51-.44-3.11-.48-4.69-.44-4.47.1-9.1.77-12.84,3.22-2.94,1.93-5.11,4.82-7.22,7.65-.49.67-1.01,1.38-1.09,2.21v.37h-.11c.13,2.38.07,4.85-.15,7.17l-.03.25c-8.98-1.13-17.62-3.36-25.77-6.54l.1-.25c.06-2.49.11-4.98.17-7.46-3.76-1.82-6.91-4.49-9.69-7.6-3.3-3.69-6.08-7.98-8.73-12.17-3.51-5.57-7.03-11.18-9.63-17.24-5.36-12.45-6.66-26.22-7.83-39.73Z"/>
      <path class="cls-4" d="M159.49,162.12c.17-.11.33-.21.5-.33.96-.65,1.83-1.43,2.62-2.29.84-.92,1.59-1.93,2.25-3,.71-1.13,1.32-2.33,1.86-3.54,1.6-3.6,2.61-7.44,4.08-11.11.52-1.31,1.1-2.61,1.94-3.75,2.23-3.01,5.94-4.5,9.55-5.5,3.23-.89,6.58-1.51,9.92-1.24,3.98.32,7.76,1.89,11.28,3.78,2.55,1.36,5.03,2.93,7.01,5.04,1.31,1.41,2.4,3.09,3.02,4.9.31.91.51,1.85.56,2.81l-.07.38s-.06-.01-.09-.01l-.13.26c-.47-.23-.97-.42-1.48-.56l.09-.35c-2.37-2.35-5.63-3.76-8.96-3.89-3.32-.13-6.68,1.04-9.22,3.2-.22-.57-.29-1.2-.2-1.81-2.6.94-4.98,2.51-6.85,4.54-1.87,2.02-3.38,4.59-5.94,5.59-.24-.23-.23-.65,0-.88-1.61,1.17-3.22,2.33-4.83,3.49-.85.63-1.71,1.25-2.57,1.87-.4.29-.81.59-1.22.88-1.39,1.01-2.83,2.04-4.52,2.36-2.84.54-5.71-1.04-8.6-.84Z"/>
      <path class="cls-9" d="M207.03,204.14c-.23-.23-.61-.32-.92-.2-.28.11-.49.39-.53.69-.28.25-.4.7-.26,1.06.16.44.66.72,1.12.62.13-.02.27-.08.37-.17.11-.1.18-.22.25-.35.26-.52.39-1.23-.03-1.65ZM205.11,210.92c.01-.19.03-.39-.04-.57s-.25-.33-.44-.3l-.35-.03c-.58-.23-1.19-.35-1.81-.35-.16,0-.32,0-.46.08-.13.07-.22.19-.3.31-.46.71-.58,1.58-.62,2.43-.04,1.09.04,2.18.26,3.25.12.64.31,1.29.74,1.77.42.48,1.16.75,1.74.47.72-.35.87-1.3.93-2.1.12-1.66.23-3.31.35-4.96ZM206.26,227.36c-4-1.86-8.04-3.74-11.55-6.42-3.51-2.69-6.48-6.29-7.6-10.56l.43-.09c2.22-.06,4.46-.12,6.6-.7,3.84-1.04,7.04-3.64,10.05-6.24,1.72-1.5,3.46-3.04,4.66-4.97.04-.05.07-.11.11-.17l.13.02c-.48,3.31-.9,6.64-1.25,9.97-.61,5.89-1,11.8-1.19,17.72-.01.48-.02.96-.04,1.45h-.35Z"/>
      <path class="cls-13" d="M135.66,202.12c-.37-.02-.77-.03-1.05.21-.26.23-.33.6-.37.95-.14.98-.12,2.26.8,2.64.27.12.57.13.86.13,7.47.11,14.93.22,22.39.33.3,0,.62.01.91-.09,1.24-.4,1.29-2.12,1.09-3.41-5.55-.5-11.12-.76-16.69-.77-.43,0-.89-.01-1.25-.23-.2-.12-.34-.32-.41-.54-.05-.19-.04-.4.08-.56.23-.3.66-.32,1.03-.3,9.18.26,18.35.66,27.52,1.19.4.02.84.03,1.13-.24.45-.41.26-1.16.51-1.71.36-.81,1.45-.91,2.34-.89,4.89.13,9.79.25,14.68.38l.32.08c-.95,3.67-1.81,7.36-2.56,11.06-.64,3.14-1.19,6.3-1.64,9.46l-.15-.02c-.13-.09-.25-.19-.38-.28l-.04-.04c-.09-.63-.93-.91-1.52-.67-.6.24-.98.8-1.33,1.34-2.79,4.27-5.59,8.54-8.38,12.8-.65,1-1.35,2.04-2.41,2.57-1.82.91-4.05,0-5.66-1.26-1.6-1.25-2.97-2.88-4.84-3.69-4.44-1.92-9.9,1.41-14.3-.59-1.41-.64-2.54-1.77-3.62-2.89-5.53-5.72-10.77-11.73-15.67-18-.32-.41-.7-.84-1.21-.86-.45-.01-.83.33-1.16.65-2.54,2.52-4.69,5.45-6.35,8.63l-.52.05c-.46-2.9-.83-5.82-1.13-8.72-.24-2.27-.44-4.53-.51-6.81-.05-1.52-.04-3.05.03-4.57h.24c3.41-.19,6.83-.08,10.22.35.29.04.61.09.79.33.22.3.1.72.18,1.08.17.81,1.22,1.01,2.04,1.04,2.22.09,4.43.17,6.64.26.62.02,1.27.05,1.83.33.38.2.71.53.86.92.06.18.09.37.06.57-1.13-.07-2.27-.14-3.4-.21ZM158.61,216.59c.59,0,1.22.02,1.7.36s.68,1.13.24,1.52c-.28.24-.7.23-1.07.21-.91-.04-1.81-.09-2.72-.14-.15-.01-.31-.02-.45.06-.23.13-.27.46-.27.73-.01.96.09,1.93.29,2.87.03.13.06.27.17.36.1.08.24.09.38.09,2.04.03,4.07.07,6.11.1,4.17.07,8.35.14,12.49-.37.21-.03.43-.06.59-.21.18-.16.21-.43.24-.67.09-.75.17-1.5.25-2.25.02-.16.04-.34-.03-.49-.13-.26-.47-.34-.76-.38-2.21-.32-4.45-.52-6.69-.59-.17-.01-.35-.01-.5-.11-.24-.16-.28-.49-.29-.78-.01-.28-.02-.56-.02-.84,0-.08,0-.17.06-.23.06-.09.18-.09.29-.1.92-.01,1.84-.02,2.77-.04.15,0,.31-.01.44-.1s.18-.27.22-.43c.24-.98.27-2.02.09-3.01-.04-.21-.09-.43-.23-.6-.24-.28-.67-.31-1.04-.31-8.05-.09-16.1-.18-24.14-.27-.26,0-.53,0-.73.16-.19.15-.24.46-.07.6-.11,1.32,0,2.64.3,3.93.04.18.09.37.22.5.19.2.5.22.77.23,3.8.09,7.59.16,11.39.2Z"/>
      <path class="cls-13" d="M66.29,193.22c.1,0,.2.01.26.07.08.07.08.18.08.28v1.01c0,.17,0,.36-.1.5-.16.26-.52.29-.83.29-1.51,0-3.03,0-4.54,0-.17,0-.34,0-.48.08-.28.15-.35.51-.4.82-.06.43-.13.87-.05,1.29.08.43.32.85.72,1.03.27.12.58.11.87.11,5.62-.14,11.24-.28,16.86-.42.34,0,.75-.05.92-.35.08-.15.08-.33.08-.5-.02-.49-.07-.98-.15-1.46-.04-.22-.1-.45-.24-.62-.19-.22-.5-.29-.79-.34-1.74-.33-3.53-.44-5.3-.35-.36.02-.8,0-1-.29-.1-.14-.12-.32-.13-.48-.06-.64-.07-1.28-.03-1.92.01-.11.02-.22.08-.31.11-.15.33-.17.51-.17,6.04-.03,12.09.03,18.12.17l.43.05c-.29,2.44-.55,4.88-.78,7.32l-.42-.04c-2.08-.02-4.17-.05-6.26-.07-.26,0-.53,0-.77.09-.78.29-.91,1.32-.86,2.15.03.6.09,1.2.17,1.8.02.19.06.4.21.52.13.11.31.13.48.14,1.53.09,3.06.14,4.59.15.22,0,.47.01.61.18.09.11.11.27.13.42.01.11.02.22.02.33,0,.4-.08.8-.42.97-.18.09-.39.09-.59.08-3.7-.09-7.4-.19-11.09-.28-.14-.01-.29-.01-.41.07-.15.09-.21.28-.26.45-.31,1.22-.41,2.5-.3,3.76.02.2.05.42.2.55.14.12.34.13.52.13,4.46.12,8.91.23,13.37.34h.24c-.17,4.04-.2,8.08-.05,12.11h-.14c-5.53-1.82-10.83-4.31-15.78-7.38-.77-.48-1.53-.98-2.35-1.37-.69-.33-1.46-.58-2.21-.45-1.13.19-1.93,1.19-2.61,2.13-2.65,3.7-5.22,7.67-9.09,10.06l-.39.05c-.51-4.23-.77-8.54-.77-12.91,0-2.28.07-4.55.22-6.8l.29.02c2.82.03,5.64.05,8.46.08.38,0,.79,0,1.09-.23.35-.27.44-.75.5-1.18.14-.96.21-2.08-.49-2.75-.56-.54-1.42-.58-2.19-.6-2.34-.04-4.69-.09-7.03-.13l-.23-.03c.43-4.17,1.11-8.27,2.01-12.29l.37.08h5.78c.29,0,.59,0,.84.13.26.12.46.41.39.69-.11.47-.76.48-1.24.41-1.17-.17-2.36-.15-3.53.03-.12.02-.25.05-.32.15-.06.07-.07.17-.07.26-.05.76.03,1.53.21,2.27,1.69.04,3.38.07,5.06.11Z"/>
      <path class="cls-15" d="M206.25,227.54v-.18s.36.01.36.01c-.21,8.66.04,17.33.76,25.96.32,3.8.75,7.67,2.33,11.13l-.12.17c-1.74-1.26-3.39-2.64-4.95-4.13-2.78-2.67-5.24-5.67-8.19-8.15-1.86-1.56-3.86-2.89-5.98-3.99-.9-.47-1.82-.91-2.76-1.3l.09-.21c-1.38-1.2-2.69-2.61-3.2-4.36l.12-.16c3.06-.56,6.1-1.3,8.97-2.51,2.87-1.2,5.57-2.88,7.71-5.13,1.99-2.1,3.44-4.63,4.86-7.15Z"/>
      <path class="cls-2" d="M218.57,121.12c-.21-.96-.31-1.94-.29-2.91l.19-.34c4.01,2.25,7.87,4.74,11.54,7.47l-.14.19c-.89-.24-1.83-.09-2.75-.18s-1.93-.57-2.14-1.47c-.06-.28-.06-.62-.3-.78-.13-.09-.28-.1-.44-.11-1.17-.08-2.34-.15-3.51-.22-.59-.04-1.23-.1-1.64-.51-.3-.3-.43-.73-.52-1.14Z"/>
      <path class="cls-2" d="M159.92,161.68l.07.11c-.17.12-.33.22-.5.33,2.89-.2,5.76,1.38,8.6.84,1.69-.32,3.13-1.35,4.52-2.36.41-.29.82-.59,1.22-.88l1.73,2.39c-.26.23-.19.74.09.99.33.27.79.29,1.22.3.68.02,1.36.03,2.04.05.35.01.73.03.99.26.28.25.33.67.36,1.04.07.91.14,1.82.22,2.73,0,.23.03.48-.12.65-.16.2-.45.23-.7.24-3.94.13-7.88-.12-11.81-.38-2.92-.19-5.86-.37-8.79-.19-2.09.13-4.37.41-6.13-.74-.09-.06-.17-.12-.23-.2-.06-.07-.1-.16-.13-.25-.56-1.44-.72-3.03-.44-4.55.02-.12.05-.24.13-.33.13-.13.33-.14.51-.14,2.38.03,4.77.06,7.15.09Z"/>
      <path class="cls-1" d="M203.12,163.4c-.26.13-.41.44-.35.72.05.26.24.46.47.6.28.17.66.24.94.06.19-.13.29-.35.37-.56.04-.11.07-.22.06-.34-.01-.22-.19-.41-.37-.54-.2-.14-.43-.26-.67-.24-.19.01-.38.13-.45.3ZM199.93,171.1c.05.09.16.12.27.15.32.09.67.18,1,.11.86-.18,1.22-1.26,2-1.67.29-.16.65-.23.84-.5.27-.37.04-.91-.3-1.22s-.79-.51-1.08-.87c-.09-.11-.17-.24-.3-.31-.25-.14-.57.01-.85-.06l-.14-.04c-.76.62-.99,1.66-1.18,2.63-.09.49-.19.98-.28,1.47-.02.1-.04.22.02.31ZM194.17,183.04c1.76-5.79,3.62-11.6,5.97-17.17.79-1.91,1.65-3.79,2.6-5.64,1.01-2.04,2.13-4.03,3.36-5.96l.22.1c-.38,4.24-.36,8.54.55,12.7.91,4.15,2.74,8.15,5.64,11.25l-.08.08c-2.38,2.22-5.36,3.77-8.52,4.56-3.13.78-6.43.84-9.61.28-.02-.06-.03-.11-.04-.17l-.09-.03Z"/>
      <path class="cls-2" d="M191.73,191.27c-.37,1.31-.74,2.63-1.1,3.94l-.26-.07-12.12-.78c-.25-.01-.52-.04-.71-.2-.27-.22-.29-.62-.25-.97.11-.93.58-1.93,1.47-2.24.35-.12.73-.12,1.11-.11,2.82.01,5.65.03,8.48.05.18,0,.37-.01.51-.12.09-.07.14-.17.17-.27l2.7.77Z"/>
      <path class="cls-18" d="M217.07,162.58l.22-.48c1.05.41,2.24.21,3.3-.16.1-.04.21-.07.31-.11l.15,2.3c-.3.02-.6.06-.88.17-.08.04-.17.08-.23.15-.05.06-.08.14-.1.22-.31,1.09-.17,2.31.38,3.3.08.13.16.26.27.36.16.15.37.23.58.28.81.22,1.66.16,2.5.11,2.99-.16,5.99-.15,8.99-.15l.31-.03c.18,2.04.09,4.11-.27,6.13l.06.18c.29-.15.66.01.85.27.2.27.26.6.32.92l.87,4.98c.03.17.06.33.09.49.28,1.71.35,3.44.42,5.17.05,1.18.1,2.36.15,3.53.01.25.02.5.02.74h-.38c-1.23.07-2.45.23-3.64.5-.14.03-.28.07-.38.17-.1.11-.13.26-.15.41-.14.97-.15,1.95-.05,2.93.05.42.14.9.5,1.14.25.18.58.2.9.21.91.02,1.82.05,2.73.08.67.02,1.34.04,2.02.06,6.61.2,13.23.4,19.84.6.76.03,1.59.03,2.19-.44.81-.62.87-1.79.87-2.8,0-.42-.04-.89-.36-1.16-.2-.17-.49-.21-.75-.24-3.53-.41-7.08-.59-10.63-.53-.43.01-.89.01-1.25-.24-.35-.25-.47-.85-.12-1.09.13-.09.3-.12.46-.14,4.82-.55,9.69.87,14.53.47.2-.01.42-.04.59-.15.3-.21.35-.63.36-1,.04-.83.05-1.66.05-2.49-.01-.2-.01-.42-.11-.6-.13-.24-.38-.37-.63-.47-.78-.3-1.64-.35-2.47-.4-5.24-.3-10.48-.6-15.73-.9l-.15-.08c1.22-2.43,2.17-5,2.82-7.65.6-2.45.95-4.95,1.28-7.45h.01c1.49.11,2.98.23,4.47.34.66.05,1.38.09,1.92-.29.9-.63.8-1.97.6-3.04-.07-.37-.18-.81-.53-.96-.19-.08-.41-.06-.62-.03-.87.1-1.75.14-2.63.13-.4,0-.86-.05-1.06-.39-.08-.13-.11-.29-.08-.44.05-.27.25-.53.5-.66.4-.21.87-.18,1.31-.16,1.64.09,3.27.08,4.91-.02.3-.01.65-.06.83-.31.1-.15.12-.35.13-.53.04-.8.03-1.6-.05-2.39-.02-.22-.05-.46-.11-.67l2.52-1.4c2.39,4.15,4.5,8.48,6.32,12.96l-.18.07c-2.24.02-4.48-.09-6.7-.32-.63-.06-1.31-.13-1.85.21-.73.46-.87,1.46-.93,2.32-.03.39-.06.79-.09,1.18-.02.24-.03.5.09.7.22.37.74.39,1.16.38.91,0,1.83.07,2.72.24.67.13,1.4.37,1.69.98.33.69-.04,1.65.5,2.2.33.33.85.35,1.32.34,1.7-.01,3.4-.02,5.1-.04l.14-.05c2.31,7.25,3.87,14.83,4.59,22.65l-.39.03c-3.26-.12-6.53-.24-9.79-.37-.98-.04-1.97-.07-2.94.05-.09,0-.19.03-.25.09-.11.09-.12.25-.14.39-.12,1.24-1.3,2.28-2.54,2.24l-.1.12c-5.08-.2-10.16-.16-15.23.12-.07.34.2.68.53.81.32.13.68.1,1.03.08,1.71-.11,3.43-.06,5.13.14.4.05.83.12,1.13.39.61.55.3,1.66-.4,2.12-.69.46-1.58.45-2.41.43-4.9-.12-9.8-.24-14.69-.36-.44-.01-.91-.02-1.29.21-.38.22-.6.76-.34,1.12,1.85.09,3.7.18,5.56.27.99.05,2.07.13,2.82.79s.81,2.12-.11,2.5c-.29.12-.61.12-.93.11-5.25-.16-10.51-.31-15.76-.47-.55-.01-1.13-.04-1.6-.33-.98-.61-.83-2.35.24-2.79.63-.25,1.34-.08,2,.09.66.16,1.38.31,1.99.02.61-.3.92-1.25.38-1.66-.24-.19-.56-.21-.86-.23-5.54-.33-11.09-.46-16.64-.37l-.28-.03c.35-3.33.77-6.66,1.25-9.97.15-1.03.31-2.06.48-3.09l.38.06c3.75-.28,7.52-.24,11.27.13.91.09,2.01.13,2.55-.62.23-.32.3-.71.34-1.1.09-.83-.01-1.81-.69-2.3-.42-.3-.96-.34-1.47-.37-3.82-.22-7.65-.21-11.47.05l-.21-.04c.54-3.07,1.14-6.13,1.81-9.18l.18.04c5.26.13,10.52.26,15.78.4.3,0,.66-.02.82-.27.07-.12.09-.26.1-.39.08-.89.09-1.78.04-2.66-.02-.4-.07-.83-.36-1.11-.16-.15-.38-.23-.59-.29-.57-.16-1.15-.2-1.74-.25-4.25-.34-8.51-.69-12.78-.74l-.23-.06c1.11-4.66,2.37-9.28,3.77-13.86Z"/>
      <path class="cls-18" d="M68.45,172.9c1.93.03,3.87.07,5.81.1.34.01.71,0,.99-.19.53-.38.42-1.2.25-1.84-.07-.26-.15-.54-.34-.74-.3-.32-.78-.37-1.21-.39-2.87-.13-5.74-.17-8.61-.1l-.2-.09c1.26-2.92,2.65-5.78,4.16-8.55l1.62.85c-.13.18-.15.42-.16.64-.02.43-.03.89.2,1.25.29.46.86.63,1.39.74,4.29.91,8.73.18,13.11.16,3.07,0,6.16.33,9.21-.05l.34.07c-.73,3.33-1.27,6.71-1.73,10.1l-.18-.03c-1.72,0-3.44,0-5.15.02-.38,0-.81.04-1.03.34-.12.17-.14.39-.14.6-.01.84.3,1.76,1.04,2.13.42.21.9.22,1.36.22,1.15,0,2.3-.02,3.45-.06l.21.03c-.13,1.01-.26,2.03-.39,3.04-.18,1.42-.35,2.85-.53,4.27l-.47-.06c-5.18-.13-10.36-.25-15.54-.38-.27,0-.54-.01-.77.13-.35.21-.44.67-.46,1.08-.02.46.03.95.28,1.35.32.49.92.76,1.5.82.59.07,1.18-.04,1.76-.13,4.29-.65,8.65-.51,12.99-.36l.41.05c-.16,1.26-.3,2.52-.44,3.78l-.43-.05c-6.03-.14-12.08-.2-18.12-.17-.18,0-.4.02-.51.17-.06.09-.07.2-.08.31-.04.64-.03,1.28.03,1.92.01.16.03.34.13.48.2.3.64.31,1,.29,1.77-.09,3.56.02,5.3.35.29.05.6.12.79.34.14.17.2.4.24.62.08.48.13.97.15,1.46,0,.17,0,.35-.08.5-.17.3-.58.35-.92.35-5.62.14-11.24.28-16.86.42-.29,0-.6,0-.87-.11-.4-.18-.64-.6-.72-1.03-.08-.42-.01-.86.05-1.29.05-.31.12-.67.4-.82.14-.07.31-.08.48-.08,1.51,0,3.03,0,4.54,0,.31,0,.67-.03.83-.29.1-.14.1-.33.1-.5v-1.01c0-.1,0-.21-.08-.28-.06-.06-.16-.07-.26-.07-1.68-.04-3.37-.07-5.06-.11-.18-.74-.26-1.51-.21-2.27,0-.09.01-.19.07-.26.07-.1.2-.13.32-.15,1.17-.18,2.36-.2,3.53-.03.48.07,1.13.06,1.24-.41.07-.28-.13-.57-.39-.69-.25-.13-.55-.13-.84-.13h-5.78l-.37-.08c.96-4.27,2.16-8.45,3.61-12.51l.29.1c3.02.13,6.03.27,9.05.41.36.02.81-.01.97-.34.08-.14.08-.3.07-.46-.03-.33-.08-.65-.18-.97-.1-.36-.25-.72-.53-.97-.98-.9-2.66.04-3.85-.55-.28-.14-.53-.47-.35-.72.12-.18.36-.19.57-.18Z"/>
      <path class="cls-15" d="M184.59,242.49c.51,1.75,1.82,3.16,3.2,4.36l-.09.21c-1.08-.46-2.18-.87-3.3-1.23l.11-.25c-.79-8.62-.36-17.22.84-25.77.45-3.16,1-6.32,1.64-9.46l.12.03c1.12,4.27,4.09,7.87,7.6,10.56,3.51,2.68,7.55,4.56,11.55,6.42v.18c-1.43,2.52-2.88,5.05-4.87,7.15-2.14,2.25-4.84,3.93-7.71,5.13-2.87,1.21-5.91,1.95-8.97,2.51l-.12.16ZM186.23,233.27c.07.24.26.43.48.56.97.61,2.44.3,3.17,1.19.27.32.4.78.78.96.35.18.8.03,1.08-.26.27-.28.39-.68.48-1.07.04-.21.08-.43.03-.64-.05-.22-.17-.4-.3-.57-.76-1.02-1.77-1.85-2.93-2.38-.7-.33-1.58-.53-2.22-.09l-.17.08c-.26.56-.42,1.17-.44,1.79-.01.14-.01.29.04.43Z"/>
      <path class="cls-2" d="M213.53,176.5c4.27.05,8.53.4,12.78.74.59.05,1.17.09,1.74.25.21.06.43.14.59.29.29.28.34.71.36,1.11.05.88.04,1.77-.04,2.66-.01.13-.03.27-.1.39-.16.25-.52.27-.82.27-5.26-.14-10.52-.27-15.78-.4l-.18-.04c.24-1.13.49-2.25.75-3.37.15-.66.31-1.31.47-1.96l.23.06Z"/>
      <path class="cls-2" d="M269.13,180.04l-.14.05c-1.7.02-3.4.03-5.1.04-.47.01-.99-.01-1.32-.34-.54-.55-.17-1.51-.5-2.2-.29-.61-1.02-.85-1.69-.98-.89-.17-1.81-.25-2.72-.24-.42.01-.94,0-1.16-.38-.12-.2-.11-.46-.09-.7.03-.39.06-.79.09-1.18.06-.86.2-1.86.93-2.32.54-.34,1.22-.27,1.85-.21,2.22.23,4.46.34,6.7.32l.18-.07c1.1,2.68,2.1,5.42,2.97,8.21Z"/>
      <path class="cls-2" d="M262.71,187.24c0,.83-.01,1.66-.05,2.49,0,.37-.06.79-.36,1-.17.11-.39.14-.59.15-4.84.4-9.71-1.02-14.53-.47-.16.02-.33.05-.46.14-.35.24-.23.84.12,1.09.36.25.82.25,1.25.24,3.55-.06,7.1.12,10.63.53.26.03.55.07.75.24.32.27.35.74.36,1.16,0,1.01-.06,2.18-.87,2.8-.6.47-1.43.47-2.19.44-6.61-.2-13.23-.4-19.84-.6-.68-.02-1.35-.04-2.02-.06l.07-2.5c1.06-.41,2.11-.81,3.17-1.22l.18-.04c2.1-2.37,3.88-5.01,5.29-7.84l.15.08c5.25.3,10.49.6,15.73.9.83.05,1.69.1,2.47.4.25.1.5.23.63.47.1.18.1.4.11.6Z"/>
      <path class="cls-18" d="M217.03,149.96c-.2.03-.4.08-.6.15.79-.94,2.02-1.35,3.2-1.67,5.54-1.51,11.41-1.75,17.05-.71-.07-.5-.19-.99-.35-1.47,6.05.21,11.47,3.93,17.47,4.68l.69-.48c1.91,2.71,3.7,5.52,5.35,8.41l-2.52,1.4c-.05-.22-.15-.42-.29-.59-.4-.46-1.07-.53-1.67-.55-2.19-.09-4.39,0-6.57.28l-.38.12c-.07-.27-.17-.53-.31-.78-.9-1.65-2.99-2.12-4.7-2.93-1.74-.82-3.21-2.12-4.82-3.18-5.67-3.75-13.22-4.49-19.51-1.91l-.37.11c-.15-.17-.32-.31-.51-.42-.36-.22-.76-.34-1.16-.46Z"/>
      <path class="cls-2" d="M257.43,160.94c.08.79.09,1.59.05,2.39-.01.18-.03.38-.13.53-.18.25-.53.3-.83.31-1.64.1-3.27.11-4.91.02-.44-.02-.91-.05-1.31.16-.25.13-.45.39-.5.66l-1.49-.15c.11-.96.19-1.92.25-2.88.04-.82.06-1.67-.15-2.45l.38-.12c2.18-.28,4.38-.37,6.57-.28.6.02,1.27.09,1.67.55.14.17.24.37.29.59.06.21.09.45.11.67Z"/>
      <path class="cls-2" d="M254.72,166.7c.2,1.07.3,2.41-.6,3.04-.54.38-1.26.34-1.92.29-1.49-.11-2.98-.23-4.47-.34h-.01c.02-.13.03-.25.05-.38.19-1.48.39-2.97.54-4.45l1.49.15c-.03.15,0,.31.08.44.2.34.66.39,1.06.39.88.01,1.76-.03,2.63-.13.21-.03.43-.05.62.03.35.15.46.59.53.96Z"/>
      <path class="cls-11" d="M254.49,150.46l-.69.48c-6-.75-11.42-4.47-17.47-4.68.16.48.28.97.35,1.47-5.64-1.04-11.51-.8-17.05.71-1.18.32-2.41.73-3.2,1.67-.31.1-.62.23-.93.37l-.16-.51c.02-.42-.36-.75-.71-.98l.19-.26c1.56-1.45,2.94-3.1,4.1-4.89.75-1.17,1.43-2.44,1.71-3.78h.01c1.53-2.68,3.17-5.36,5.52-7.35,2.36-1.99,5.56-3.21,8.56-2.49l.59-.7c7.27,6.11,13.72,13.15,19.18,20.94Z"/>
      <path class="cls-11" d="M220.09,151.77v.36c-.2,0-.42.04-.61.15l-.44-.04s.01-.06.01-.09c.02-.25.02-.5-.04-.74-.06-.21-.17-.41-.31-.57l.37-.11c6.29-2.58,13.84-1.84,19.51,1.91,1.61,1.06,3.08,2.36,4.82,3.18,1.71.81,3.8,1.28,4.7,2.93.14.25.24.51.31.78.21.78.19,1.63.15,2.45-.06.96-.14,1.92-.25,2.88-.15,1.48-.35,2.97-.54,4.45-.02.13-.03.25-.05.38-.33,2.5-.68,5-1.28,7.45-.65,2.65-1.6,5.22-2.82,7.65-1.41,2.83-3.19,5.47-5.29,7.84l-.18.04c-1.06.41-2.11.81-3.17,1.22.38-.92.43-1.93.4-2.94,0-.24-.01-.49-.02-.74-.05-1.17-.1-2.35-.15-3.53-.07-1.73-.14-3.46-.42-5.17-.03-.16-.06-.32-.09-.49l-.87-4.98c-.06-.32-.12-.65-.32-.92-.19-.26-.56-.42-.85-.27l-.06-.18c.36-2.02.45-4.09.27-6.13-.12-1.37-.36-2.72-.73-4.04-.01-.03-.01-.05-.02-.08-.06-.23-.17-.5-.41-.53-.12-.02-.24.03-.36.03-.43-.02-.5-.63-.46-1.06.25-2.92-.83-5.94-2.89-8.04-2.04-2.08-5-3.22-7.91-3.05Z"/>
      <path class="cls-2" d="M235.38,190.95c.03,1.01-.02,2.02-.4,2.94l-.07,2.5c-.91-.03-1.82-.06-2.73-.08-.32-.01-.65-.03-.9-.21-.36-.24-.45-.72-.5-1.14-.1-.98-.09-1.96.05-2.93.02-.15.05-.3.15-.41.1-.1.24-.14.38-.17,1.19-.27,2.41-.43,3.64-.49h.38Z"/>
      <path class="cls-2" d="M232.87,168.54l-.31.03c-3,0-6-.01-8.99.15-.84.05-1.69.11-2.5-.11-.21-.05-.42-.13-.58-.28-.11-.1-.19-.23-.27-.36-.55-.99-.69-2.21-.38-3.3.02-.08.05-.16.1-.22.06-.07.15-.11.23-.15.28-.11.58-.15.88-.17.19-.01.38-.01.57-.01,3.43.06,6.86.68,10.28.44l.24-.06c.37,1.32.61,2.67.73,4.04Z"/>
      <path class="cls-18" d="M232.12,164.42s.01.05.02.08l-.24.06c-3.42.24-6.85-.38-10.28-.44-.19,0-.38,0-.57.01l-.15-2.3c.31-.13.61-.28.86-.48.72-.56,1.07-1.47,1.27-2.35.27-1.1.36-2.26.14-3.37-.21-1.11-.76-2.18-1.63-2.91-.4-.34-.93-.59-1.44-.59v-.36c2.9-.17,5.86.97,7.9,3.05,2.06,2.1,3.14,5.12,2.89,8.04-.04.43.03,1.04.46,1.06.12,0,.24-.05.36-.03.24.03.35.3.41.53Z"/>
      <path class="cls-2" d="M223.42,191.31c.68.49.78,1.47.69,2.3-.04.39-.11.78-.34,1.1-.54.75-1.64.71-2.55.62-3.75-.37-7.52-.41-11.27-.13l-.38-.06c.21-1.4.45-2.8.7-4.19l.21.04c3.82-.26,7.65-.27,11.47-.05.51.03,1.05.07,1.47.37Z"/>
      <path class="cls-7" d="M215.67,159.93l-.21-.85c.22-.05.44-.12.66-.21.45-.19.88-.45,1.2-.83.28-.31.46-.7.62-1.08.63-1.5,1.01-3.1,1.1-4.72l.44.04c.19-.11.41-.15.62-.15.51,0,1.04.25,1.44.59.87.73,1.42,1.8,1.63,2.91.22,1.11.13,2.27-.14,3.37-.2.88-.55,1.79-1.27,2.35-.25.2-.55.35-.86.48-.1.04-.21.07-.31.11-1.06.37-2.25.57-3.3.16-.9-.34-1.62-1.24-1.62-2.17Z"/>
      <path class="cls-11" d="M214.01,148.27l.07-.38c-.05-.96-.25-1.9-.56-2.81l.18-.06c-.54-3.56-1.26-7.38-3.83-9.91-1.14-1.13-2.56-1.91-3.84-2.86-2.16-1.61-3.93-3.71-6.12-5.28-.67-.48-1.39-.91-2.17-1.16-1.01-.33-2.1-.36-3.17-.32-1.44.05-2.87.21-4.3.38-4.76.57-9.49,1.35-14.19,2.32-2.12.44-4.24.92-6.34,1.44l-.19-.24c1.23-1.34,2.6-2.54,4.08-3.59,3.18-2.27,6.87-3.84,10.72-4.54-.17.53.71.69,1.24.52,3.41-1.06,6.73-2.46,10.26-2.99,5.58-.84,11.47.66,15.97,4.06-.24,1.14.8,2.1,1.67,2.86,3.03,2.64,5.35,6.09,6.66,9.89.36,1.04.64,2.12.62,3.21,0,.42-.05.84-.14,1.25-.28,1.34-.96,2.61-1.71,3.78-1.16,1.79-2.54,3.44-4.1,4.89l-.19.26c-.27-.17-.55-.33-.84-.47l.13-.26s.06,0,.09.01Z"/>
      <path class="cls-5" d="M216.43,150.11c.2-.07.4-.12.6-.15.4.12.8.24,1.16.46.19.11.36.25.51.42.14.16.25.36.31.57.06.24.06.49.04.74,0,.03,0,.06-.01.09-.09,1.62-.47,3.22-1.1,4.72-.16.38-.34.77-.62,1.08-.32.38-.75.64-1.2.83-.22.09-.44.16-.66.21-1.61.39-3.39-.08-4.71-1.1-.3-.23-.58-.5-.79-.82-.38-.6-.43-1.35-.26-2.04.1-.42.28-.82.52-1.17.65-.93,1.64-1.56,2.63-2.12.86-.49,1.75-.94,2.65-1.35.31-.14.62-.27.93-.37Z"/>
      <path class="cls-1" d="M217.29,162.1l-.22.48c-1.4,4.58-2.66,9.2-3.77,13.86-.16.65-.32,1.3-.47,1.96l-.31-.07h-.01c-2.9-3.11-4.73-7.11-5.64-11.26-.91-4.16-.93-8.46-.55-12.7l-.22-.1.3-.4c.68.69,1.62,1.13,2.59,1.15l.71.1c-.17.69-.12,1.44.26,2.04.21.32.49.59.79.82,1.32,1.02,3.1,1.49,4.71,1.1l.21.85c0,.93.72,1.83,1.62,2.17Z"/>
      <path class="cls-8" d="M205.58,204.63c.04-.3.25-.58.53-.69.31-.12.69-.03.92.2.42.42.29,1.13.03,1.65-.07.13-.14.25-.25.35-.1.09-.24.15-.37.17-.46.1-.96-.18-1.12-.62-.14-.36-.02-.81.26-1.06Z"/>
      <path class="cls-8" d="M205.07,210.35c.07.18.05.38.04.57-.12,1.65-.23,3.3-.35,4.96-.06.8-.21,1.75-.93,2.1-.58.28-1.32.01-1.74-.47-.43-.48-.62-1.13-.74-1.77-.22-1.07-.3-2.16-.26-3.25.04-.85.16-1.72.62-2.43.08-.12.17-.24.3-.31.14-.08.3-.08.46-.08.62,0,1.23.12,1.81.35l.35.03c.19-.03.37.12.44.3Z"/>
      <path class="cls-8" d="M203.12,163.4c.07-.17.26-.29.45-.3.24-.02.47.1.67.24.18.13.36.32.37.54.01.12-.02.23-.06.34-.08.21-.18.43-.37.56-.28.18-.66.11-.94-.06-.23-.14-.42-.34-.47-.6-.06-.28.09-.59.35-.72Z"/>
      <path class="cls-8" d="M203.74,167.97c.34.31.57.85.3,1.22-.19.27-.55.34-.84.5-.78.41-1.14,1.49-2,1.67-.33.07-.68-.02-1-.11-.11-.03-.22-.06-.27-.15-.06-.09-.04-.21-.02-.31.09-.49.19-.98.28-1.47.19-.97.42-2.01,1.18-2.63l.14.04c.28.07.6-.08.85.06.13.07.21.2.3.31.29.36.74.56,1.08.87Z"/>
      <path class="cls-2" d="M203.51,111.7c.09.78.13,1.56.11,2.35,0,.24-.02.51-.19.68-.19.18-.48.18-.74.17-6.32-.25-12.64-.49-18.96-.73-.12-.01-.24-.01-.34-.06-.18-.09-.28-.28-.37-.46-.23-.48-.46-.97-.48-1.5-.03-.53.21-1.1.69-1.32.76-.34,1.9.25,2.36-.45.26-.4.02-.98-.39-1.24s-.92-.28-1.41-.29c-3.84-.12-7.69-.23-11.53-.35-.21-.01-.42-.01-.6-.11-.37-.21-.45-.71-.48-1.14-.06-.96-.13-1.93-.2-2.89v-.23c8.55.45,16.83,1.88,24.73,4.19l-.13.46c.04.36-.06.72-.09,1.09-.03.36.04.77.34.98.21.15.48.16.74.16,2.11.05,4.23.1,6.35.14.11,0,.23,0,.33.05.04.02.07.04.1.06.12.11.15.28.16.44Z"/>
      <path class="cls-18" d="M203.38,110.86l-.13.34c-.1-.04-.22-.04-.33-.05-2.12-.04-4.24-.09-6.35-.14-.26,0-.53-.01-.74-.16-.3-.21-.37-.62-.34-.98.03-.37.13-.73.09-1.09l.13-.46c2.6.75,5.16,1.6,7.67,2.54Z"/>
      <path class="cls-2" d="M202.53,160.13l.21.1c-.95,1.85-1.81,3.73-2.6,5.64l-.28-.12c-.85.07-1.7.08-2.56.04-.29-.01-.61-.04-.81-.25-.14-.14-.19-.33-.24-.52-.27-1.19.02-2.43.31-3.63.1-.42.24-.9.64-1.08.18-.08.38-.08.58-.09,1.58-.03,3.16-.06,4.75-.09Z"/>
      <path class="cls-2" d="M193.07,185.29l.39.12c-.59,1.95-1.17,3.9-1.73,5.86l-2.7-.77c.04-.11.04-.23.05-.34.02-.41.01-.91-.35-1.14-.16-.1-.36-.12-.55-.13-5.82-.39-11.67-.05-17.5-.29-.17-.01-.35-.02-.49-.11-.24-.15-.3-.46-.33-.74-.1-.82-.11-1.74.46-2.34.56-.59,1.47-.63,2.28-.63,6.83.04,13.65.85,20.47.51Z"/>
      <path class="cls-8" d="M192.25,234.01c.05.21.01.43-.03.64-.09.39-.21.79-.48,1.07-.28.29-.73.44-1.08.26-.38-.18-.51-.64-.78-.96-.73-.89-2.2-.58-3.17-1.19-.22-.13-.41-.32-.48-.56-.05-.14-.05-.29-.04-.43.02-.62.18-1.23.44-1.79l.17-.08c.64-.44,1.52-.24,2.22.09,1.16.53,2.17,1.36,2.93,2.38.13.17.25.35.3.57Z"/>
      <path class="cls-6" d="M190.46,248.36l-.2.39c.63.49.55,1.55-.01,2.11-.57.56-1.45.68-2.24.55-.78-.14-1.51-.49-2.25-.77-3.36-1.27-7.26-1.11-10.28-3.06-.56-.37-1.13-.88-1.21-1.55-.09-.76.46-1.44,1.01-1.97l.03-.22c3.1.39,6.16,1.04,9.09,1.99,1.12.36,2.22.77,3.3,1.23.94.39,1.86.83,2.76,1.3Z"/>
      <path class="cls-10" d="M189.72,319.2v.05c-3.11.71-6.28,1.3-9.5,1.73v-.08c-.93-2.19-.9-4.66-.85-7.04v-.21c2.88,0,5.77-.01,8.65-.02h.02c.14,1.94.72,3.86,1.68,5.57Z"/>
      <path class="cls-2" d="M188.39,161.8c0,.21-.01.42-.08.62-.29.68-1.25.67-1.99.55-3.38-.55-6.81-.88-10.24-.99-.13,0-.27-.01-.4.05-.05.02-.09.05-.12.08l-1.73-2.39c.86-.62,1.72-1.24,2.57-1.87l.14.19c3.51.07,7.02.28,10.51.64.33.04.69.09.9.34.13.16.18.37.21.57.14.73.22,1.47.23,2.21Z"/>
      <path class="cls-6" d="M188.02,313.38c0,.08.01.17.02.25h-.02c-2.88,0-5.77.02-8.65.02-9.23.03-18.46.06-27.69.08v-.37c.08-.83.6-1.54,1.09-2.21,2.11-2.83,4.28-5.72,7.22-7.65,3.74-2.45,8.37-3.12,12.84-3.22,1.58-.04,3.18,0,4.69.44,1.16.34,2.25.92,3.27,1.57,3.87,2.46,7.15,6.48,7.16,11.06l.07.03Z"/>
      <path class="cls-2" d="M187.11,173.28c.2.33.2.73.18,1.11-.02.64-.09,1.28-.2,1.9-.05.29-.12.58-.28.82-.4.58-1.23.63-1.94.63-3.25-.03-6.51-.05-9.77-.07-.79-.01-1.69-.06-2.22-.65-.43-.48-.48-1.18-.5-1.83-.02-.64-.02-1.28,0-1.92h.2c.09-.25.04-.54.02-.81-.01-.27.05-.58.29-.72.11-.07.26-.08.4-.09,3.52-.2,7.01.84,10.53.8.84,0,1.7-.08,2.48.22.32.12.63.31.81.61Z"/>
      <path class="cls-14" d="M180.21,320.9v.08c-4.9.69-9.92,1.04-15.02,1.04-4.68,0-9.28-.29-13.8-.87l.03-.25c.22-2.32.28-4.79.15-7.17h.11c9.23-.02,18.46-.05,27.69-.08v.21c-.05,2.38-.08,4.85.84,7.04Z"/>
      <path class="cls-6" d="M169.35,250.95l.25-.04c2.28-.18,4.56.28,6.74.99.66.22,1.36.48,1.79,1.03.44.55.48,1.47-.09,1.88-.41.29-.97.23-1.48.18-2.33-.23-4.69.1-7.02-.08-.69-.05-1.39-.15-2.04-.41-.51-.2-1.03-.58-1.08-1.12-.03-.27.06-.53.19-.77.51-1,1.62-1.66,2.73-1.66h.01Z"/>
      <path class="cls-2" d="M176.08,128.19l.09.44c-.2.59.25,1.38-.21,1.79-.22.19-.53.2-.81.19-6.69-.12-13.38-.23-20.07-.35-.69-.01-1.44-.05-1.96-.51-.68-.59-.68-1.63-.62-2.53.02-.26.04-.54.23-.71s.47-.18.73-.17c2.22.05,4.45.1,6.68.14.69.02,1.57-.09,1.79-.75.16-.48-.17-1.01-.62-1.25-.44-.24-.97-.27-1.47-.28-.99-.04-1.97-.08-2.96-.11-.27-.01-.57-.04-.75-.24-.17-.19-.16-.48-.26-.71-.25-.58-1.02-.67-1.65-.67-3.19.01-6.37.03-9.55.04-1.01,0-2.07,0-2.97-.45-.91-.45-1.61-1.49-1.33-2.46.05-.17.13-.34.27-.45.21-.18.51-.18.79-.18,6.57.04,13.15.08,19.73.12l.17-.26c-.01-.42-.01-.85-.02-1.27,0-.1,0-.22.06-.3.08-.11.24-.13.38-.13,1.32-.08,2.66.04,3.95.34.4.09.84.24.99.62.04.12.06.26.15.35.1.12.28.13.44.13,2,0,4.01,0,6.01,0,.4,0,.86.04,1.09.36.12.18.14.4.15.61.04.67-.02,1.35-.17,2-.05.22-.12.45-.29.6-.19.17-.48.19-.74.19-2.37.07-4.74.08-7.11.04-.35-.01-.77.02-.96.31-.12.17-.12.39-.12.6v1.09c0,.13.01.27.09.37.09.12.24.15.38.17,2.61.46,5.26.7,7.91.72l.11.16c-1.48,1.05-2.85,2.25-4.08,3.59l.19.24c2.1-.52,4.22-1,6.34-1.44Z"/>
      <path class="cls-6" d="M166.79,246.99c.17-.21.47-.26.74-.27.49,0,.98.05,1.45.19.22.07.44.16.62.31.17.16.29.39.26.62-.02.15-.1.29-.2.41-.37.44-.94.66-1.51.72-.57.05-1.15-.04-1.71-.13-.18-.03-.36-.06-.5-.16-.2-.14-.29-.4-.27-.64.03-.24.15-.46.32-.63.22-.22.5-.37.8-.42Z"/>
      <path class="cls-2" d="M165.96,107.22c.09.14.09.31.09.48-.02.95-.06,1.89-.11,2.84-.01.2-.04.42-.2.53-.1.08-.24.09-.37.09-2.75.08-5.5.06-8.25-.08-.35-.02-.75-.06-.95-.35-.21-.3-.1-.71-.24-1.04-.24-.58-1.03-.61-1.65-.55-2.98.25-5.97.26-8.95.04-.51-.04-1.05-.1-1.44-.42-.63-.53-.6-1.49-.51-2.31l-.05-.28c5.11-1.04,10.35-1.72,15.7-2.01l.03.49c-.1.51-.12,1.03-.06,1.54.01.12.03.25.12.33.08.07.2.09.31.09,2.02.18,4.11-.26,6.05.32.19.06.38.13.48.29Z"/>
      <path class="cls-2" d="M158.6,137.61c0-.18.12-.36.28-.46.21-.12.47-.12.72-.14.83-.04,1.64-.24,2.47-.3.82-.07,1.7.02,2.39.48.84.56,1.26,1.6,1.32,2.61.05,1.01-.21,2.01-.48,2.98-.08.28-.19.59-.44.74-.14.08-.32.09-.48.1-1.23.08-2.47.05-3.69-.08-.51-.05-1.05-.14-1.45-.47-.52-.44-.64-1.18-.71-1.85-.12-1.19-.17-2.38-.16-3.58l.23-.03Z"/>
      <path class="cls-2" d="M164.67,156.38l.19.12c-.66,1.07-1.41,2.08-2.25,3l-.2-.18c.02-.62.03-1.23.04-1.85,0-.12,0-.24.05-.35.1-.23.37-.33.61-.4.51-.16,1.02-.32,1.56-.34Z"/>
      <path class="cls-2" d="M163.49,186.37c.76.58.8,1.68.77,2.64-.01.21-.03.43-.16.59-.19.24-.54.25-.84.23-3-.11-5.99-.23-8.99-.35-2.57-.1-5.14-.2-7.7-.01-.75.06-1.51.14-2.24.01-.74-.14-1.47-.53-1.81-1.2-.35-.67-.16-1.62.5-1.96.53-.27,1.16-.12,1.72.05.57.16,1.19.33,1.72.1.44-.2.69-.8.51-1.19l2.95-.33c.05.29.27.58.55.71.45.22.97.14,1.46.07,3.4-.47,6.86-.41,10.24.17.47.08.95.18,1.32.47Z"/>
      <path class="cls-6" d="M162.81,243.75c.89.59,1.1,1.88.72,2.88-.39.99-1.23,1.74-2.12,2.33-2.75,1.84-6.2,2.6-9.47,2.08-.79-.12-1.6-.33-2.22-.83-1.3-1.02-1.47-2.97-.94-4.54l-.1-.42c4.42-1.03,8.98-1.59,13.5-1.83.21-.01.41-.02.62-.03v.36Z"/>
      <path class="cls-6" d="M158.33,254.13v-.04c.51-.04,1.06-.04,1.49.24.65.4.83,1.31.58,2.03s-.83,1.27-1.46,1.7c-1.55,1.06-3.42,1.56-5.28,1.81-2.16.3-4.38.3-6.5-.21-.17-.05-.35-.1-.45-.25-.11-.16-.07-.38,0-.56.33-.85,1.22-1.36,2.11-1.54s1.81-.11,2.72-.16,1.86-.24,2.53-.85c.28-.26.5-.58.76-.87.88-.95,2.21-1.44,3.49-1.3Z"/>
      <path class="cls-18" d="M160.29,202.88c.2,1.29.15,3.01-1.09,3.41-.29.1-.61.09-.91.09-7.46-.11-14.92-.22-22.39-.33-.29,0-.59-.01-.86-.13-.92-.38-.94-1.66-.8-2.64.04-.35.11-.72.37-.95.28-.24.68-.23,1.05-.21,1.13.07,2.27.14,3.4.21.03-.2,0-.39-.06-.57l2.94-.42c.07.22.21.42.41.54.36.22.82.23,1.25.23,5.57,0,11.14.27,16.69.77Z"/>
      <path class="cls-2" d="M153.08,182.38c.03.78-.24,1.73-1.01,1.91-.68.15-1.57-.39-2.02.15-.12.15-.16.33-.13.51l-2.95.33c-.04-.08-.11-.16-.2-.22-.19-.12-.44-.13-.66-.14-4.1-.06-8.21-.12-12.31-.18-.44,0-1.04.12-1.04.57,0,.18.12.34.26.46,1.02.89,2.75,0,3.91.7.88.53,1.03,1.72,1.08,2.75,0,.13,0,.26-.05.38-.1.18-.34.24-.55.26-2.36.31-4.74-.05-7.11-.31-4.41-.49-8.86-.64-13.3-.45l-.14-.02c.1-.97.22-1.95.34-2.92l.19.02c3.6.3,7.21.33,10.81.08.53-.04,1.2-.2,1.28-.73.06-.35-.22-.68-.54-.82-.32-.13-.69-.12-1.04-.11-3.37.11-6.75-.03-10.1-.42l-.35-.04c.01-.14.03-.29.05-.43.34-2.75.69-5.49,1.03-8.24l.15.02c4.47-.03,8.93.08,13.39.34.37.02.76.05,1.05.26.59.43.5,1.4-.01,1.91-.51.52-1.28.67-2,.73-1.04.08-2.09,0-3.11-.2-.4-.09-.8-.19-1.19-.12-.4.07-.78.38-.79.78,0,.67.9.89,1.57.89,7.57,0,15.14.01,22.71.01.76,0,1.61.04,2.17.57.45.43.59,1.09.61,1.72Z"/>
      <path class="cls-2" d="M152.19,140.9c.1.88.06,1.77.03,2.65,0,.15,0,.3-.09.42-.14.21-.43.23-.68.23-1.73,0-3.47-.12-5.19-.34l-.25.2c-1.69-2.12-3.95-3.82-6.41-5.09l.13-.24c3.67.2,7.34.46,11,.79.36.03.76.08,1.03.32.3.26.38.67.43,1.06Z"/>
      <path class="cls-18" d="M128.94,184.71c.32.14.6.47.54.82-.08.53-.75.69-1.28.73-3.6.25-7.21.22-10.81-.08l-.19-.02c.08-.67.16-1.35.25-2.02l.35.04c3.35.39,6.73.53,10.1.42.35-.01.72-.02,1.04.11Z"/>
      <path class="cls-10" d="M125.89,306.9c-.06,2.48-.11,4.97-.17,7.46l-.1.25c-3.76-1.46-7.4-3.12-10.94-4.98l.12-.22c-.03-3.41.44-6.84,1.4-10.11,2.78,3.11,5.93,5.78,9.69,7.6Z"/>
      <path class="cls-2" d="M113.02,138.42l.1.21c-3.75,1.78-7.12,4.36-9.84,7.49l-1.36-1.96c.33,0,.64-.06.85-.3.39-.43.13-1.17-.36-1.48-.48-.31-1.1-.31-1.68-.3-3.53.05-7.06.11-10.59.16-.32.01-.68,0-.89-.24-.12-.13-.17-.31-.21-.49-.12-.62-.11-1.28.04-1.9.03-.11.06-.25.01-.35-.08-.15-.27-.17-.43-.18-1-.05-2-.06-3-.03l-.31-.28c1.12-1.21,2.27-2.39,3.45-3.54,4.16-.07,8.31.03,12.46.31.16.01.33.03.48.1.63.35.2,1.45.71,1.97.23.24.6.27.94.29,3.21.17,6.42.35,9.63.52Z"/>
      <path class="cls-18" d="M111.4,118.16l.26.47s-.05.03-.08.06c-.07.08-.08.21-.09.32-.03.79-.07,1.59-.1,2.38,0,.2-.02.41-.12.58-.22.38-.74.43-1.17.44-1.88.01-3.77.03-5.65.05,2.26-1.52,4.58-2.96,6.95-4.3Z"/>
      <path class="cls-2" d="M101.92,144.16l1.36,1.96c-1.19,1.36-2.25,2.84-3.17,4.39-.02.03-.03.06-.05.09l-.22-.12c-4.68-.06-9.36-.17-14.03-.35-.34-.01-.71-.04-.95-.28-.14-.16-.21-.37-.25-.57-.18-.77-.2-1.57-.06-2.34.06-.34.17-.71.45-.9.25-.16.56-.16.85-.16,3.85.06,7.69.15,11.54.25.42.01.95-.03,1.14-.41.24-.48-.2-1.22.24-1.53.12-.08.26-.1.4-.11.71-.07,1.42-.06,2.13.03.2.03.41.05.62.05Z"/>
      <path class="cls-18" d="M102.41,142.38c.49.31.75,1.05.36,1.48-.21.24-.52.3-.85.3-.21,0-.42-.02-.62-.05-.71-.09-1.42-.1-2.13-.03-.14.01-.28.03-.4.11-.44.31,0,1.05-.24,1.53-.19.38-.72.42-1.14.41-3.85-.1-7.69-.19-11.54-.25-.29,0-.6,0-.85.16-.28.19-.39.56-.45.9-.14.77-.12,1.57.06,2.34.04.2.11.41.25.57.24.24.61.27.95.28,4.67.18,9.35.29,14.03.35l.22.12c-.95,1.62-1.75,3.32-2.42,5.07l-.14-.06c-3.67.18-7.35.09-11.01-.28-1.34-.13-2.68-.3-4.02-.24-.53.02-1.08.09-1.56.33-.47.23-.88.68-.95,1.21-.1.79.58,1.51,1.34,1.76.41.13.83.17,1.27.17l.05,2.85c-3.54.05-7.08.11-10.63.17-.39.01-.85.04-1.07.37l-1.62-.85c4.4-8.12,9.8-15.62,16.05-22.33l.31.28c1-.03,2-.02,3,.03.16.01.35.03.43.18.05.1.02.24-.01.35-.15.62-.16,1.28-.04,1.9.04.18.09.36.21.49.21.23.57.25.89.24,3.53-.05,7.06-.11,10.59-.16.58,0,1.2,0,1.68.3Z"/>
      <path class="cls-2" d="M97.5,155.61l.14.06c-.41,1.05-.78,2.13-1.1,3.21l-.22-.07c-.48-.02-.96-.04-1.44-.05-.18-.01-.37-.01-.49.12-.09.09-.11.23-.11.36-.02.41.07.82.26,1.19.04.06.08.13.14.17.09.07.21.07.32.08.21,0,.41,0,.62.01l.35.13c-.14.51-.27,1.02-.4,1.54-.2.8-.38,1.6-.56,2.4l-.34-.07c-3.05.38-6.14.04-9.21.05-4.38.02-8.82.75-13.11-.16-.53-.11-1.1-.28-1.39-.74-.23-.36-.22-.82-.2-1.25,0-.22.03-.46.16-.64.22-.33.68-.36,1.07-.37,3.55-.06,7.09-.12,10.63-.17,2.34-.05,4.68-.08,7.02-.12.13,0,.28-.02.36-.12.07-.08.07-.2.06-.31-.02-.43-.05-.86-.08-1.28-.01-.13-.01-.26-.08-.37-.12-.17-.35-.21-.55-.24-1.88-.27-3.77-.53-5.67-.45-.37,0-.74.04-1.11.04-.44,0-.86-.04-1.27-.17-.76-.25-1.44-.97-1.34-1.76.07-.53.48-.98.95-1.21.48-.24,1.03-.31,1.56-.33,1.34-.06,2.68.11,4.02.24,3.66.37,7.34.46,11.01.28Z"/>
      <path class="cls-18" d="M96.32,158.81l.22.07c-.21.64-.4,1.29-.57,1.94l-.35-.13c-.21-.01-.41-.01-.62-.01-.11-.01-.23-.01-.32-.08-.06-.04-.1-.11-.14-.17-.19-.37-.28-.78-.26-1.19,0-.13.02-.27.11-.36.12-.13.31-.13.49-.12.48.01.96.03,1.44.05Z"/>
      <path class="cls-2" d="M93.1,174.83l.18.03c-.16,1.08-.3,2.17-.44,3.25l-.21-.03c-1.15.04-2.3.06-3.45.06-.46,0-.94-.01-1.36-.22-.74-.37-1.05-1.29-1.04-2.13,0-.21.02-.43.14-.6.22-.3.65-.34,1.03-.34,1.71-.03,3.43-.03,5.15-.02Z"/>
      <path class="cls-2" d="M91.45,185.36l.47.06c-.1.83-.2,1.66-.3,2.5l-.41-.05c-4.34-.15-8.7-.29-12.99.36-.58.09-1.17.2-1.76.13-.58-.06-1.18-.33-1.5-.82-.25-.4-.3-.89-.28-1.35.02-.41.11-.87.46-1.08.23-.14.5-.13.77-.13,5.18.13,10.36.25,15.54.38Z"/>
      <path class="cls-18" d="M90.06,160.86c.01.11.01.23-.06.31-.08.1-.23.12-.36.12-2.34.04-4.68.07-7.02.12l-.05-2.85c.37,0,.74-.03,1.11-.04,1.9-.08,3.79.18,5.67.45.2.03.43.07.55.24.07.11.07.24.08.37.03.42.06.85.08,1.28Z"/>
      <path class="cls-18" d="M88.3,204.69l1.61.11c-.14,1.99-.26,3.98-.35,5.97h-.24c-4.46-.12-8.91-.23-13.37-.35-.18,0-.38-.01-.52-.13-.15-.13-.18-.35-.2-.55-.11-1.26-.01-2.54.3-3.76.05-.17.11-.36.26-.45.12-.08.27-.08.41-.07,3.69.09,7.39.19,11.09.28.2.01.41.01.59-.08.34-.17.42-.57.42-.97Z"/>
      <path class="cls-2" d="M75.5,170.97c.17.64.28,1.46-.25,1.84-.28.19-.65.2-.99.19-1.94-.03-3.88-.07-5.81-.1-.21-.01-.45,0-.57.18-.18.25.07.58.35.72,1.19.59,2.87-.35,3.85.55.28.25.43.61.53.97.1.32.15.64.18.97.01.16.01.32-.07.46-.16.33-.61.36-.97.34-3.02-.14-6.03-.28-9.05-.41l-.29-.1c.82-2.35,1.73-4.66,2.73-6.93l.2.09c2.87-.07,5.74-.03,8.61.1.43.02.91.07,1.21.39.19.2.27.48.34.74Z"/>
      <path class="cls-18" d="M66.24,202.14c.7.67.63,1.79.49,2.75-.06.43-.15.91-.5,1.18-.3.23-.71.23-1.09.23-2.82-.03-5.64-.05-8.46-.08l-.29-.02c.09-1.62.22-3.22.39-4.82h.01l.23.03c2.34.04,4.69.09,7.03.13.77.02,1.63.06,2.19.6Z"/>
    </g>
    <g>
      <path class="cls-21" d="M274.17,210.41c.03.86.04,1.72.04,2.59,0,28.84-11.2,55.07-29.5,74.57-14.53,15.5-33.55,26.75-54.98,31.68-3.12.71-6.29,1.3-9.51,1.73-4.91.69-9.93,1.04-15.03,1.04-4.68,0-9.28-.29-13.8-.87-8.98-1.13-17.62-3.36-25.77-6.54-3.76-1.46-7.4-3.12-10.94-4.98-31.16-16.31-53.45-47.26-57.74-83.72-.51-4.23-.77-8.54-.77-12.91,0-2.28.07-4.55.22-6.8.09-1.62.22-3.22.39-4.82h.01c.43-4.17,1.11-8.27,2.01-12.29.96-4.27,2.16-8.45,3.61-12.51.82-2.35,1.73-4.66,2.73-6.93,1.26-2.92,2.65-5.78,4.16-8.55,4.4-8.12,9.8-15.62,16.05-22.33,1.12-1.21,2.27-2.39,3.45-3.54,4.48-4.41,9.35-8.44,14.54-12.01.37-.26.74-.52,1.11-.76,2.26-1.52,4.58-2.96,6.95-4.3,9.8-5.58,20.54-9.67,31.93-11.99,5.11-1.04,10.35-1.72,15.7-2.01,2.04-.12,4.09-.18,6.16-.18,1.95,0,3.88.05,5.8.15,8.54.45,16.82,1.88,24.72,4.19,2.6.75,5.16,1.6,7.67,2.54,5.23,1.95,10.28,4.3,15.09,7.01,4.01,2.25,7.87,4.74,11.54,7.47,1.81,1.34,3.58,2.73,5.3,4.18,7.27,6.11,13.72,13.15,19.18,20.94,1.91,2.71,3.7,5.52,5.35,8.41,2.39,4.15,4.5,8.48,6.32,12.96,1.1,2.68,2.1,5.42,2.97,8.21,2.31,7.25,3.87,14.83,4.59,22.65.13,1.29.23,2.58.3,3.88.07,1.1.11,2.2.14,3.31.01.17.02.35.01.53Z"/>
      <path class="cls-22" d="M248.04,250.05c.01.1.03.19.04.29,1.64,12.34.31,25.06-3.85,36.79"/>
      <path class="cls-22" d="M248.12,250.23s-.03.07-.04.11c-3.16,8.93-10.51,16.29-19.44,19.47-1.79.64-3.68,1.12-5.58,1.04-2.26-.09-4.41-.96-6.44-1.96-2.46-1.21-4.82-2.64-7.04-4.26-1.74-1.26-3.39-2.64-4.95-4.13-2.78-2.67-5.24-5.67-8.19-8.15-1.86-1.56-3.86-2.89-5.98-3.99-.9-.47-1.82-.91-2.76-1.3-1.08-.46-2.18-.87-3.3-1.23-2.93-.95-5.99-1.6-9.09-1.99-4.14-.54-8.37-.64-12.51-.45-.21.01-.41.02-.62.03-4.52.24-9.08.8-13.5,1.83-6.08,1.4-11.9,3.7-16.99,7.27"/>
      <path class="cls-22" d="M125.89,306.7v.2c-.06,2.48-.11,4.97-.17,7.46"/>
      <path class="cls-22" d="M151.42,313.73h.26c9.23-.02,18.46-.05,27.69-.08,2.88,0,5.77-.01,8.65-.02"/>
      <path class="cls-22" d="M188.02,313.38c0,.08.01.17.02.25.14,1.94.72,3.86,1.68,5.57"/>
      <path class="cls-22" d="M151.57,313.73c.13,2.38.07,4.85-.15,7.17"/>
      <path class="cls-22" d="M179.37,313.86c-.05,2.38-.08,4.85.84,7.04"/>
      <path class="cls-22" d="M119.15,170.48c-.01.08-.02.15-.03.23-.2,1.59-.39,3.17-.59,4.76-.34,2.75-.69,5.49-1.03,8.24-.02.14-.04.29-.05.43-.09.67-.17,1.35-.25,2.02-.12.97-.24,1.95-.34,2.92h-.01c-.31,2.79-.56,5.58-.65,8.37-.07,1.52-.08,3.05-.03,4.57.07,2.28.27,4.54.51,6.81.3,2.9.67,5.82,1.13,8.72,2,12.59,5.75,24.95,13.51,34.68"/>
      <path class="cls-22" d="M119.17,170.72c4.31-1.32,8.96-.72,13.43-1.36,5.08-.73,10.01-3.22,13.14-7.29,3.14-4.08,4.25-9.79,2.32-14.55-.51-1.26-1.21-2.41-2.05-3.46-1.69-2.12-3.95-3.82-6.41-5.09-.58-.31-1.17-.59-1.77-.84-6.65-2.84-14.33-3.17-21.19-.92-1.2.4-2.38.87-3.52,1.42-3.75,1.78-7.12,4.36-9.84,7.49-1.19,1.36-2.25,2.84-3.17,4.39-.02.03-.03.06-.05.09-.95,1.62-1.75,3.32-2.42,5.07-.41,1.05-.78,2.13-1.1,3.21-.21.64-.4,1.29-.57,1.94-.14.51-.27,1.02-.4,1.54-.2.8-.38,1.6-.56,2.4-.73,3.33-1.27,6.71-1.73,10.1-.16,1.08-.3,2.17-.44,3.25-.13,1.01-.26,2.03-.39,3.04-.18,1.42-.35,2.85-.53,4.27-.1.83-.2,1.66-.3,2.5-.16,1.26-.3,2.52-.44,3.78-.29,2.44-.55,4.88-.78,7.32-.18,1.92-.35,3.85-.49,5.78-.14,1.99-.26,3.98-.35,5.97-.17,4.03-.2,8.07-.05,12.1.09,2.43.25,4.86.5,7.29"/>
      <path class="cls-22" d="M89.99,229.88c.01.09.02.19.02.28,1.17,13.51,2.47,27.28,7.83,39.73,2.6,6.06,6.12,11.67,9.63,17.24,2.65,4.19,5.43,8.48,8.73,12.17,2.78,3.11,5.93,5.78,9.69,7.6.03.02.07.03.1.05"/>
      <path class="cls-22" d="M116.21,299.28s0,.01-.01.02c-.96,3.27-1.43,6.7-1.4,10.11"/>
      <path class="cls-22" d="M206.1,154.27c-1.23,1.93-2.35,3.92-3.36,5.96-.95,1.85-1.81,3.73-2.6,5.64-2.35,5.57-4.21,11.38-5.97,17.17-.02.08-.05.16-.07.24-.22.71-.43,1.42-.64,2.13-.59,1.95-1.17,3.9-1.73,5.86-.37,1.31-.74,2.63-1.1,3.94-.37,1.36-.73,2.72-1.08,4.08-.95,3.67-1.81,7.36-2.56,11.06-.64,3.14-1.19,6.3-1.64,9.46-1.2,8.55-1.63,17.15-.84,25.77"/>
      <path class="cls-22" d="M217.07,162.58c-1.4,4.58-2.66,9.2-3.77,13.86-.16.65-.32,1.3-.47,1.96-.26,1.12-.51,2.24-.75,3.37-.67,3.05-1.27,6.11-1.81,9.18-.25,1.39-.49,2.79-.7,4.19-.17,1.03-.33,2.06-.48,3.09-.48,3.31-.9,6.64-1.25,9.97-.61,5.89-1,11.8-1.19,17.72-.01.48-.02.96-.04,1.45-.21,8.66.04,17.33.76,25.96.32,3.8.75,7.67,2.33,11.13"/>
      <path class="cls-22" d="M217.08,149.95s-.03.01-.05.01c-.2.03-.4.08-.6.15-.31.1-.62.23-.93.37-.9.41-1.79.86-2.65,1.35-.99.56-1.98,1.19-2.63,2.12-.24.35-.42.75-.52,1.17-.17.69-.12,1.44.26,2.04.21.32.49.59.79.82,1.32,1.02,3.1,1.49,4.71,1.1.22-.05.44-.12.66-.21.45-.19.88-.45,1.2-.83.28-.31.46-.7.62-1.08.63-1.5,1.01-3.1,1.1-4.72.01-.03.01-.06.01-.09.02-.25.02-.5-.04-.74-.06-.21-.17-.41-.31-.57-.15-.17-.32-.31-.51-.42-.36-.22-.76-.34-1.16-.46-.02-.01-.04-.01-.06-.02"/>
      <path class="cls-22" d="M215.34,149.97c.02-.42-.36-.75-.71-.98-.27-.17-.55-.33-.84-.47-.47-.23-.97-.42-1.48-.56-1.28-.36-2.64-.43-3.94-.17-.42.08-.84.2-1.22.4-.52.28-.95.71-1.25,1.22-.67,1.1-.69,2.56-.07,3.69.16.28.35.54.57.77.68.69,1.62,1.13,2.59,1.15"/>
      <path class="cls-22" d="M219.48,152.28c.19-.11.41-.15.62-.15.51,0,1.04.25,1.44.59.87.73,1.42,1.8,1.63,2.91.22,1.11.13,2.27-.14,3.37-.2.88-.55,1.79-1.27,2.35-.25.2-.55.35-.86.48-.1.04-.21.07-.31.11-1.06.37-2.25.57-3.3.16-.9-.34-1.62-1.24-1.62-2.17,0-.16.02-.33.07-.49"/>
      <path class="cls-22" d="M212.4,147.61c-2.37-2.35-5.63-3.76-8.96-3.89-3.32-.13-6.68,1.04-9.22,3.2-.22-.57-.29-1.2-.2-1.81-2.6.94-4.98,2.51-6.85,4.54-1.87,2.02-3.38,4.59-5.94,5.59-.24-.23-.23-.65,0-.88-1.61,1.17-3.22,2.33-4.83,3.49-.85.63-1.71,1.25-2.57,1.87-.4.29-.81.59-1.22.88-1.39,1.01-2.83,2.04-4.52,2.36-2.84.54-5.71-1.04-8.6-.84.17-.11.33-.21.5-.33.96-.65,1.83-1.43,2.62-2.29.84-.92,1.59-1.93,2.25-3,.71-1.13,1.32-2.33,1.86-3.54,1.6-3.6,2.61-7.44,4.08-11.11.52-1.31,1.1-2.61,1.94-3.75,2.23-3.01,5.94-4.5,9.55-5.5,3.23-.89,6.58-1.51,9.92-1.24,3.98.32,7.76,1.89,11.28,3.78,2.55,1.36,5.03,2.93,7.01,5.04,1.31,1.41,2.4,3.09,3.02,4.9.31.91.51,1.85.56,2.81"/>
      <path class="cls-22" d="M214.15,148.29s-.09-.03-.14-.02c-.03-.01-.06-.01-.09-.01"/>
      <path class="cls-22" d="M169.74,129.63c2.1-.52,4.22-1,6.34-1.44,4.7-.97,9.43-1.75,14.19-2.32,1.43-.17,2.86-.33,4.3-.38,1.07-.04,2.16,0,3.17.32.78.25,1.5.68,2.17,1.16,2.19,1.57,3.96,3.67,6.12,5.28,1.28.95,2.7,1.73,3.84,2.86,2.57,2.53,3.29,6.35,3.83,9.91"/>
      <path class="cls-22" d="M169.55,129.39c1.23-1.34,2.6-2.54,4.08-3.59,3.18-2.27,6.87-3.84,10.72-4.54-.17.53.71.69,1.24.52,3.41-1.06,6.73-2.46,10.26-2.99,5.58-.84,11.47.66,15.97,4.06-.24,1.14.8,2.1,1.67,2.86,3.03,2.64,5.35,6.09,6.66,9.89.36,1.04.64,2.12.62,3.21,0,.42-.05.84-.14,1.25-.28,1.34-.96,2.61-1.71,3.78-1.16,1.79-2.54,3.44-4.1,4.89"/>
      <path class="cls-22" d="M216.41,150.13l.02-.02c.79-.94,2.02-1.35,3.2-1.67,5.54-1.51,11.41-1.75,17.05-.71-.07-.5-.19-.99-.35-1.47,6.05.21,11.47,3.93,17.47,4.68"/>
      <path class="cls-22" d="M220.64,140.06c1.53-2.68,3.17-5.36,5.52-7.35,2.36-1.99,5.56-3.21,8.56-2.49"/>
      <path class="cls-22" d="M219.07,150.73c6.29-2.58,13.84-1.84,19.51,1.91,1.61,1.06,3.08,2.36,4.82,3.18,1.71.81,3.8,1.28,4.7,2.93.14.25.24.51.31.78.21.78.19,1.63.15,2.45-.06.96-.14,1.92-.25,2.88-.15,1.48-.35,2.97-.54,4.45-.02.13-.03.25-.05.38-.33,2.5-.68,5-1.28,7.45-.65,2.65-1.6,5.22-2.82,7.65-1.41,2.83-3.19,5.47-5.29,7.84"/>
      <path class="cls-22" d="M220.02,151.77h.07c2.91-.17,5.87.97,7.91,3.05,2.06,2.1,3.14,5.12,2.89,8.04-.04.43.03,1.04.46,1.06.12,0,.24-.05.36-.03.24.03.35.3.41.53.01.03.01.05.02.08.37,1.32.61,2.67.73,4.04.18,2.04.09,4.11-.27,6.13"/>
      <path class="cls-22" d="M232.66,174.85c.29-.15.66.01.85.27.2.27.26.6.32.92l.87,4.98c.03.17.06.33.09.49.28,1.71.35,3.44.42,5.17.05,1.18.1,2.36.15,3.53.01.25.02.5.02.74.03,1.01-.02,2.02-.4,2.94,1.06-.41,2.11-.81,3.17-1.22"/>
      <path class="cls-22" d="M206.32,154.37c-.38,4.24-.36,8.54.55,12.7.91,4.15,2.74,8.15,5.64,11.25h.01"/>
      <path class="cls-22" d="M212.43,178.4c-2.38,2.22-5.36,3.77-8.52,4.56-3.13.78-6.43.84-9.61.28-.03,0-.05,0-.08,0"/>
      <path class="cls-22" d="M194.26,183.07c.01.06.02.11.04.17.92,4.58,3.37,8.84,6.89,11.92.86.75,1.78,1.44,2.79,1.96,1.42.72,3.01,1.09,4.6,1.09"/>
      <path class="cls-22" d="M208.96,198.21c-.04.06-.07.12-.11.17-1.2,1.93-2.94,3.47-4.66,4.97-3.01,2.6-6.21,5.2-10.05,6.24-2.14.58-4.38.64-6.6.7"/>
      <path class="cls-22" d="M187.11,210.38c1.12,4.27,4.09,7.87,7.6,10.56,3.51,2.68,7.55,4.56,11.55,6.42"/>
      <path class="cls-22" d="M206.25,227.54c-1.42,2.52-2.87,5.05-4.86,7.15-2.14,2.25-4.84,3.93-7.71,5.13-2.87,1.21-5.91,1.95-8.97,2.51"/>
      <path class="cls-22" d="M184.59,242.49c.51,1.75,1.82,3.16,3.2,4.36"/>
      <path class="cls-23" d="M151.68,313.36c.08-.83.6-1.54,1.09-2.21,2.11-2.83,4.28-5.72,7.22-7.65,3.74-2.45,8.37-3.12,12.84-3.22,1.58-.04,3.18,0,4.69.44,1.16.34,2.25.92,3.27,1.57,3.87,2.46,7.15,6.48,7.16,11.06"/>
      <path class="cls-23" d="M148.78,245.67c-.53,1.57-.36,3.52.94,4.54.62.5,1.43.71,2.22.83,3.27.52,6.72-.24,9.47-2.08.89-.59,1.73-1.34,2.12-2.33.38-1,.17-2.29-.72-2.88"/>
      <path class="cls-23" d="M175.28,244.06c-.55.53-1.1,1.21-1.01,1.97.08.67.65,1.18,1.21,1.55,3.02,1.95,6.92,1.79,10.28,3.06.74.28,1.47.63,2.25.77.79.13,1.67.01,2.24-.55.56-.56.64-1.62.01-2.11"/>
      <path class="cls-23" d="M169.51,250.95h-.17c-1.11,0-2.22.66-2.73,1.66-.13.24-.22.5-.19.77.05.54.57.92,1.08,1.12.65.26,1.35.36,2.04.41,2.33.18,4.69-.15,7.02.08.51.05,1.07.11,1.48-.18.57-.41.53-1.33.09-1.88-.43-.55-1.13-.81-1.79-1.03-2.18-.71-4.46-1.17-6.74-.99"/>
      <path class="cls-23" d="M166.79,246.99c-.3.05-.58.2-.8.42-.17.17-.29.39-.32.63-.02.24.07.5.27.64.14.1.32.13.5.16.56.09,1.14.18,1.71.13.57-.06,1.14-.28,1.51-.72.1-.12.18-.26.2-.41.03-.23-.09-.46-.26-.62-.18-.15-.4-.24-.62-.31-.47-.14-.96-.2-1.45-.19-.27.01-.57.06-.74.27Z"/>
      <path class="cls-23" d="M166.94,246.96s-.1,0-.15.03"/>
      <path class="cls-23" d="M158.43,254.14s-.07,0-.1,0c-1.28-.14-2.61.35-3.49,1.3-.26.29-.48.61-.76.87-.67.61-1.62.8-2.53.85s-1.83-.02-2.72.16-1.78.69-2.11,1.54c-.08.18-.12.4,0,.56.1.15.28.2.45.25,2.12.51,4.34.51,6.5.21,1.86-.25,3.73-.75,5.28-1.81.63-.43,1.21-.98,1.46-1.7s.07-1.63-.58-2.03c-.43-.28-.98-.28-1.49-.24"/>
      <path class="cls-23" d="M144.16,250.03c-.27.19-.29.62-.08.88.2.26.56.36.89.34.15-.01.32-.05.44-.16.08-.07.13-.16.16-.26.13-.32.12-.72-.09-.99-.21-.28-.63-.4-.93-.21"/>
      <path class="cls-23" d="M186.3,255.37c-.16.24-.12.59.07.8.18.19.45.26.71.3.35.05.77.03.98-.26.17-.22.14-.54,0-.78-.15-.23-.4-.38-.66-.47s-.58-.11-.78.07"/>
      <path class="cls-23" d="M213.62,148.01c-2.18-4.19-6.52-7-11.12-8.11-4.59-1.11-9.44-.69-14.06.33-1.82.4-3.65.91-5.22,1.91-.82.52-1.55,1.17-2.28,1.81-1.26,1.11-2.51,2.22-3.77,3.32"/>
      <path class="cls-23" d="M215.55,149.11c4.97-1.81,7.76-7.14,12.31-9.86,3.22-1.92,7.27-2.38,10.84-1.24"/>
      <path class="cls-23" d="M214.66,148.51c.82-3.45,1.28-7.02.82-10.54-.45-3.51-1.87-6.97-4.41-9.45-1.3-1.26-2.86-2.24-4.45-3.12-2.82-1.57-5.87-2.87-9.09-3.12"/>
      <path class="cls-23" d="M219.42,150.97c5.15-1.34,10.96.26,14.71,4.04,2.61,2.63,4.19,6.16,5.03,9.77.85,3.61,1.01,7.35,1.14,11.06"/>
      <path class="cls-23" d="M204.28,210.02c-.58-.23-1.19-.35-1.81-.35-.16,0-.32,0-.46.08-.13.07-.22.19-.3.31-.46.71-.58,1.58-.62,2.43-.04,1.09.04,2.18.26,3.25.12.64.31,1.29.74,1.77.42.48,1.16.75,1.74.47.72-.35.87-1.3.93-2.1.12-1.66.23-3.31.35-4.96.01-.19.03-.39-.04-.57s-.25-.33-.44-.3"/>
      <path class="cls-23" d="M205.58,204.63s-.02.05-.02.08"/>
      <path class="cls-23" d="M205.58,204.63c-.28.25-.4.7-.26,1.06.16.44.66.72,1.12.62.13-.02.27-.08.37-.17.11-.1.18-.22.25-.35.26-.52.39-1.23-.03-1.65-.23-.23-.61-.32-.92-.2-.28.11-.49.39-.53.69Z"/>
      <path class="cls-23" d="M205.75,204.49c-.06.03-.12.08-.17.14"/>
      <path class="cls-23" d="M186.63,231.05c-.26.56-.42,1.17-.44,1.79-.01.14-.01.29.04.43.07.24.26.43.48.56.97.61,2.44.3,3.17,1.19.27.32.4.78.78.96.35.18.8.03,1.08-.26.27-.28.39-.68.48-1.07.04-.21.08-.43.03-.64-.05-.22-.17-.4-.3-.57-.76-1.02-1.77-1.85-2.93-2.38-.7-.33-1.58-.53-2.22-.09"/>
      <path class="cls-23" d="M203.12,163.4s-.04.09-.04.14"/>
      <path class="cls-23" d="M203.12,163.4c-.26.13-.41.44-.35.72.05.26.24.46.47.6.28.17.66.24.94.06.19-.13.29-.35.37-.56.04-.11.07-.22.06-.34-.01-.22-.19-.41-.37-.54-.2-.14-.43-.26-.67-.24-.19.01-.38.13-.45.3Z"/>
      <path class="cls-23" d="M203.14,163.38s-.01.01-.02.02"/>
      <path class="cls-23" d="M201.37,166.69c-.76.62-.99,1.66-1.18,2.63-.09.49-.19.98-.28,1.47-.02.1-.04.22.02.31.05.09.16.12.27.15.32.09.67.18,1,.11.86-.18,1.22-1.26,2-1.67.29-.16.65-.23.84-.5.27-.37.04-.91-.3-1.22s-.79-.51-1.08-.87c-.09-.11-.17-.24-.3-.31-.25-.14-.57.01-.85-.06"/>
      <path class="cls-24" d="M97.5,155.61c-3.67.18-7.35.09-11.01-.28-1.34-.13-2.68-.3-4.02-.24-.53.02-1.08.09-1.56.33-.47.23-.88.68-.95,1.21-.1.79.58,1.51,1.34,1.76.41.13.83.17,1.27.17.37,0,.74-.03,1.11-.04,1.9-.08,3.79.18,5.67.45.2.03.43.07.55.24.07.11.07.24.08.37.03.42.06.85.08,1.28.01.11.01.23-.06.31-.08.1-.23.12-.36.12-2.34.04-4.68.07-7.02.12-3.54.05-7.08.11-10.63.17-.39.01-.85.04-1.07.37-.13.18-.15.42-.16.64-.02.43-.03.89.2,1.25.29.46.86.63,1.39.74,4.29.91,8.73.18,13.11.16,3.07,0,6.16.33,9.21-.05"/>
      <path class="cls-24" d="M96.32,158.81c-.48-.02-.96-.04-1.44-.05-.18-.01-.37-.01-.49.12-.09.09-.11.23-.11.36-.02.41.07.82.26,1.19.04.06.08.13.14.17.09.07.21.07.32.08.21,0,.41,0,.62.01"/>
      <path class="cls-24" d="M118.68,175.49c4.47-.03,8.93.08,13.39.34.37.02.76.05,1.05.26.59.43.5,1.4-.01,1.91-.51.52-1.28.67-2,.73-1.04.08-2.09,0-3.11-.2-.4-.09-.8-.19-1.19-.12-.4.07-.78.38-.79.78,0,.67.9.89,1.57.89,7.57,0,15.14.01,22.71.01.76,0,1.61.04,2.17.57.45.43.59,1.09.61,1.72.03.78-.24,1.73-1.01,1.91-.68.15-1.57-.39-2.02.15-.12.15-.16.33-.13.51.05.29.27.58.55.71.45.22.97.14,1.46.07,3.4-.47,6.86-.41,10.24.17.47.08.95.18,1.32.47.76.58.8,1.68.77,2.64-.01.21-.03.43-.16.59-.19.24-.54.25-.84.23-3-.11-5.99-.23-8.99-.35-2.57-.1-5.14-.2-7.7-.01-.75.06-1.51.14-2.24.01-.74-.14-1.47-.53-1.81-1.2-.35-.67-.16-1.62.5-1.96.53-.27,1.16-.12,1.72.05.57.16,1.19.33,1.72.1.44-.2.69-.8.51-1.19-.04-.08-.11-.16-.2-.22-.19-.12-.44-.13-.66-.14-4.1-.06-8.21-.12-12.31-.18-.44,0-1.04.12-1.04.57,0,.18.12.34.26.46,1.02.89,2.75,0,3.91.7.88.53,1.03,1.72,1.08,2.75,0,.13,0,.26-.05.38-.1.18-.34.24-.55.26-2.36.31-4.74-.05-7.11-.31-4.41-.49-8.86-.64-13.3-.45"/>
      <path class="cls-24" d="M117.39,186.18c3.6.3,7.21.33,10.81.08.53-.04,1.2-.2,1.28-.73.06-.35-.22-.68-.54-.82-.32-.13-.69-.12-1.04-.11-3.37.11-6.75-.03-10.1-.42"/>
      <path class="cls-24" d="M91.45,185.36c-5.18-.13-10.36-.25-15.54-.38-.27,0-.54-.01-.77.13-.35.21-.44.67-.46,1.08-.02.46.03.95.28,1.35.32.49.92.76,1.5.82.59.07,1.18-.04,1.76-.13,4.29-.65,8.65-.51,12.99-.36"/>
      <path class="cls-24" d="M93.1,174.83c-1.72,0-3.44,0-5.15.02-.38,0-.81.04-1.03.34-.12.17-.14.39-.14.6-.01.84.3,1.76,1.04,2.13.42.21.9.22,1.36.22,1.15,0,2.3-.02,3.45-.06"/>
      <path class="cls-24" d="M65.34,169.74c2.87-.07,5.74-.03,8.61.1.43.02.91.07,1.21.39.19.2.27.48.34.74.17.64.28,1.46-.25,1.84-.28.19-.65.2-.99.19-1.94-.03-3.88-.07-5.81-.1-.21-.01-.45,0-.57.18-.18.25.07.58.35.72,1.19.59,2.87-.35,3.85.55.28.25.43.61.53.97.1.32.15.64.18.97.01.16.01.32-.07.46-.16.33-.61.36-.97.34-3.02-.14-6.03-.28-9.05-.41"/>
      <path class="cls-24" d="M90.75,191.65c-6.03-.14-12.08-.2-18.12-.17-.18,0-.4.02-.51.17-.06.09-.07.2-.08.31-.04.64-.03,1.28.03,1.92.01.16.03.34.13.48.2.3.64.31,1,.29,1.77-.09,3.56.02,5.3.35.29.05.6.12.79.34.14.17.2.4.24.62.08.48.13.97.15,1.46,0,.17,0,.35-.08.5-.17.3-.58.35-.92.35-5.62.14-11.24.28-16.86.42-.29,0-.6,0-.87-.11-.4-.18-.64-.6-.72-1.03-.08-.42-.01-.86.05-1.29.05-.31.12-.67.4-.82.14-.07.31-.08.48-.08,1.51,0,3.03,0,4.54,0,.31,0,.67-.03.83-.29.1-.14.1-.33.1-.5v-1.01c0-.1,0-.21-.08-.28-.06-.06-.16-.07-.26-.07-1.68-.04-3.37-.07-5.06-.11-.18-.74-.26-1.51-.21-2.27,0-.09.01-.19.07-.26.07-.1.2-.13.32-.15,1.17-.18,2.36-.2,3.53-.03.48.07,1.13.06,1.24-.41.07-.28-.13-.57-.39-.69-.25-.13-.55-.13-.84-.13h-5.78"/>
      <path class="cls-24" d="M116.44,197.46c3.41-.2,6.83-.09,10.22.34.29.04.61.09.79.33.22.3.1.72.18,1.08.17.81,1.22,1.01,2.04,1.04,2.22.09,4.43.17,6.64.26.62.02,1.27.05,1.83.33.38.2.71.53.86.92.06.18.09.37.06.57-1.13-.07-2.27-.14-3.4-.21-.37-.02-.77-.03-1.05.21-.26.23-.33.6-.37.95-.14.98-.12,2.26.8,2.64.27.12.57.13.86.13,7.47.11,14.93.22,22.39.33.3,0,.62.01.91-.09,1.24-.4,1.29-2.12,1.09-3.41-5.55-.5-11.12-.76-16.69-.77-.43,0-.89-.01-1.25-.23-.2-.12-.34-.32-.41-.54-.05-.19-.04-.4.08-.56.23-.3.66-.32,1.03-.3,9.18.26,18.35.66,27.52,1.19.4.02.84.03,1.13-.24.45-.41.26-1.16.51-1.71.36-.81,1.45-.91,2.34-.89,4.89.13,9.79.25,14.68.38"/>
      <path class="cls-24" d="M208.12,208.23c5.55-.09,11.1.04,16.64.37.3.02.62.04.86.23.54.41.23,1.36-.38,1.66-.61.29-1.33.14-1.99-.02-.66-.17-1.37-.34-2-.09-1.07.44-1.22,2.18-.24,2.79.47.29,1.05.32,1.6.33,5.25.16,10.51.31,15.76.47.32.01.64.01.93-.11.92-.38.86-1.84.11-2.5s-1.83-.74-2.82-.79c-1.86-.09-3.71-.18-5.56-.27-.26-.36-.04-.9.34-1.12.38-.23.85-.22,1.29-.21,4.89.12,9.79.24,14.69.36.83.02,1.72.03,2.41-.43.7-.46,1.01-1.57.4-2.12-.3-.27-.73-.34-1.13-.39-1.7-.2-3.42-.25-5.13-.14-.35.02-.71.05-1.03-.08-.33-.13-.6-.47-.53-.81,5.07-.28,10.15-.32,15.23-.12"/>
      <path class="cls-24" d="M257.67,205.12c1.24.04,2.42-1,2.54-2.24.02-.14.03-.3.14-.39.06-.06.16-.08.25-.09.97-.12,1.96-.09,2.94-.05,3.26.13,6.53.25,9.79.37"/>
      <path class="cls-24" d="M190.37,195.14l-12.12-.78c-.25-.01-.52-.04-.71-.2-.27-.22-.29-.62-.25-.97.11-.93.58-1.93,1.47-2.24.35-.12.73-.12,1.11-.11,2.82.01,5.65.03,8.48.05.18,0,.37-.01.51-.12.09-.07.14-.17.17-.27.04-.11.04-.23.05-.34.02-.41.01-.91-.35-1.14-.16-.1-.36-.12-.55-.13-5.82-.39-11.67-.05-17.5-.29-.17-.01-.35-.02-.49-.11-.24-.15-.3-.46-.33-.74-.1-.82-.11-1.74.46-2.34.56-.59,1.47-.63,2.28-.63,6.83.04,13.65.85,20.47.51"/>
      <path class="cls-24" d="M210.48,190.99c3.82-.26,7.65-.27,11.47-.05.51.03,1.05.07,1.47.37.68.49.78,1.47.69,2.3-.04.39-.11.78-.34,1.1-.54.75-1.64.71-2.55.62-3.75-.37-7.52-.41-11.27-.13"/>
      <path class="cls-24" d="M99.84,150.48c-4.68-.06-9.36-.17-14.03-.35-.34-.01-.71-.04-.95-.28-.14-.16-.21-.37-.25-.57-.18-.77-.2-1.57-.06-2.34.06-.34.17-.71.45-.9.25-.16.56-.16.85-.16,3.85.06,7.69.15,11.54.25.42.01.95-.03,1.14-.41.24-.48-.2-1.22.24-1.53.12-.08.26-.1.4-.11.71-.07,1.42-.06,2.13.03.2.03.41.05.62.05.33,0,.64-.06.85-.3.39-.43.13-1.17-.36-1.48-.48-.31-1.1-.31-1.68-.3-3.53.05-7.06.11-10.59.16-.32.01-.68,0-.89-.24-.12-.13-.17-.31-.21-.49-.12-.62-.11-1.28.04-1.9.03-.11.06-.25.01-.35-.08-.15-.27-.17-.43-.18-1-.05-2-.06-3-.03"/>
      <path class="cls-24" d="M88.7,135.23h.1c4.16-.07,8.31.03,12.46.31.16.01.33.03.48.1.63.35.2,1.45.71,1.97.23.24.6.27.94.29,3.21.17,6.42.35,9.63.52"/>
      <path class="cls-24" d="M139.73,138.73c3.67.2,7.34.46,11,.79.36.03.76.08,1.03.32.3.26.38.67.43,1.06.1.88.06,1.77.03,2.65,0,.15,0,.3-.09.42-.14.21-.43.23-.68.23-1.73,0-3.47-.12-5.19-.34"/>
      <path class="cls-24" d="M89.98,198.98c-2.08-.02-4.17-.05-6.26-.07-.26,0-.53,0-.77.09-.78.29-.91,1.32-.86,2.15.03.6.09,1.2.17,1.8.02.19.06.4.21.52.13.11.31.13.48.14,1.53.09,3.06.14,4.59.15.22,0,.47.01.61.18.09.11.11.27.13.42.01.11.02.22.02.33,0,.4-.08.8-.42.97-.18.09-.39.09-.59.08-3.7-.09-7.4-.19-11.09-.28-.14-.01-.29-.01-.41.07-.15.09-.21.28-.26.45-.31,1.22-.41,2.5-.3,3.76.02.2.05.42.2.55.14.12.34.13.52.13,4.46.12,8.91.23,13.37.34"/>
      <path class="cls-24" d="M57.02,201.41c2.34.04,4.69.09,7.03.13.77.02,1.63.06,2.19.6.7.67.63,1.79.49,2.75-.06.43-.15.91-.5,1.18-.3.23-.71.23-1.09.23-2.82-.03-5.64-.05-8.46-.08"/>
      <path class="cls-24" d="M235,190.96c-1.23.06-2.45.22-3.64.49-.14.03-.28.07-.38.17-.1.11-.13.26-.15.41-.14.97-.15,1.95-.05,2.93.05.42.14.9.5,1.14.25.18.58.2.9.21.91.02,1.82.05,2.73.08.67.02,1.34.04,2.02.06,6.61.2,13.23.4,19.84.6.76.03,1.59.03,2.19-.44.81-.62.87-1.79.87-2.8,0-.42-.04-.89-.36-1.16-.2-.17-.49-.21-.75-.24-3.53-.41-7.08-.59-10.63-.53-.43.01-.89.01-1.25-.24-.35-.25-.47-.85-.12-1.09.13-.09.3-.12.46-.14,4.82-.55,9.69.87,14.53.47.2-.01.42-.04.59-.15.3-.21.35-.63.36-1,.04-.83.05-1.66.05-2.49-.01-.2-.01-.42-.11-.6-.13-.24-.38-.37-.63-.47-.78-.3-1.64-.35-2.47-.4-5.24-.3-10.48-.6-15.73-.9"/>
      <path class="cls-24" d="M103.43,123.36c.05.7.1,1.39.15,2.09.02.32.06.67.29.89.23.21.56.23.87.24,5.12.16,10.24.17,15.35.02.57-.02,1.3.1,1.39.65.06.37-.25.71-.6.82s-.73.06-1.1,0c-1.74-.24-3.5-.32-5.26-.26-.38.02-.8.06-1.04.36-.14.16-.19.37-.23.58-.14.68-.21,1.38-.21,2.07-.01.12,0,.26.06.36.13.22.44.22.69.2,6.24-.44,12.49.36,18.75.4.22,0,.45,0,.63-.14.24-.18.26-.54.25-.85-.01-1.35-.06-2.71-.12-4.07-.01-.08-.01-.17-.06-.25-.09-.16-.3-.18-.48-.19-1.87-.08-3.74-.15-5.61-.23-.16-.01-.32-.02-.43-.13-.15-.15-.11-.4-.11-.61.01-.6-.44-1.18-1.03-1.32-.35-.08-.71-.02-1.07,0s-.75-.02-1.02-.26c-.26-.24-.31-.74-.01-.93.16-.1.35-.09.53-.09,2.28.08,4.56.17,6.84.25.2,0,.4.01.58-.08.26-.13.38-.44.47-.72.22-.71.36-1.45.4-2.19,0-.21.02-.42-.07-.6-.21-.42-.77-.49-1.24-.49-6.34-.1-12.69-.2-19.03-.3-.1,0-.21,0-.3.04-.03.02-.05.03-.08.06-.07.08-.08.21-.09.32-.03.79-.07,1.59-.1,2.38,0,.2-.02.41-.12.58-.22.38-.74.43-1.17.44-1.88.01-3.77.03-5.65.05h-.26"/>
      <path class="cls-24" d="M143.38,106.45c-.09.82-.12,1.78.51,2.31.39.32.93.38,1.44.42,2.98.22,5.97.21,8.95-.04.62-.06,1.41-.03,1.65.55.14.33.03.74.24,1.04.2.29.6.33.95.35,2.75.14,5.5.16,8.25.08.13,0,.27,0,.37-.09.16-.11.19-.33.2-.53.05-.95.09-1.89.11-2.84,0-.17,0-.34-.09-.48-.1-.16-.29-.23-.48-.29-1.94-.58-4.03-.14-6.05-.32-.11,0-.23-.02-.31-.09-.09-.08-.11-.21-.12-.33-.06-.51-.04-1.03.06-1.54"/>
      <path class="cls-24" d="M161.16,119.09c-6.58-.04-13.16-.08-19.73-.12-.28,0-.58,0-.79.18-.14.11-.22.28-.27.45-.28.97.42,2.01,1.33,2.46.9.45,1.96.45,2.97.45,3.18-.01,6.36-.03,9.55-.04.63,0,1.4.09,1.65.67.1.23.09.52.26.71.18.2.48.23.75.24.99.03,1.97.07,2.96.11.5.01,1.03.04,1.47.28.45.24.78.77.62,1.25-.22.66-1.1.77-1.79.75-2.23-.04-4.46-.09-6.68-.14-.26-.01-.54,0-.73.17s-.21.45-.23.71c-.06.9-.06,1.94.62,2.53.52.46,1.27.5,1.96.51,6.69.12,13.38.23,20.07.35.28,0,.59,0,.81-.19.46-.41.01-1.2.21-1.79"/>
      <path class="cls-24" d="M173.52,125.64c-2.65-.02-5.3-.26-7.91-.72-.14-.02-.29-.05-.38-.17-.08-.1-.09-.24-.09-.37v-1.09c0-.21,0-.43.12-.6.19-.29.61-.32.96-.31,2.37.04,4.74.03,7.11-.04.26,0,.55-.02.74-.19.17-.15.24-.38.29-.6.15-.65.21-1.33.17-2-.01-.21-.03-.43-.15-.61-.23-.32-.69-.36-1.09-.36-2,0-4.01,0-6.01,0-.16,0-.34-.01-.44-.13-.09-.09-.11-.23-.15-.35-.15-.38-.59-.53-.99-.62-1.29-.3-2.63-.42-3.95-.34-.14,0-.3.02-.38.13-.06.08-.06.2-.06.3.01.42.01.85.02,1.27"/>
      <path class="cls-24" d="M170.98,104.36c.07.96.14,1.93.2,2.89.03.43.11.93.48,1.14.18.1.39.1.6.11,3.84.12,7.69.23,11.53.35.49.01,1,.03,1.41.29s.65.84.39,1.24c-.46.7-1.6.11-2.36.45-.48.22-.72.79-.69,1.32.02.53.25,1.02.48,1.5.09.18.19.37.37.46.1.05.22.05.34.06,6.32.24,12.64.48,18.96.73.26,0,.55,0,.74-.17.17-.17.19-.44.19-.68.02-.79-.02-1.57-.11-2.35-.01-.16-.04-.33-.16-.44-.03-.02-.06-.04-.1-.06-.1-.04-.22-.04-.33-.05-2.12-.04-4.24-.09-6.35-.14-.26,0-.53-.01-.74-.16-.3-.21-.37-.62-.34-.98.03-.37.13-.73.09-1.09"/>
      <path class="cls-24" d="M176.54,158.04c3.51.07,7.02.28,10.51.64.33.04.69.09.9.34.13.16.18.37.21.57.14.73.22,1.47.23,2.21,0,.21-.01.42-.08.62-.29.68-1.25.67-1.99.55-3.38-.55-6.81-.88-10.24-.99-.13,0-.27-.01-.4.05-.05.02-.09.05-.12.08-.26.23-.19.74.09.99.33.27.79.29,1.22.3.68.02,1.36.03,2.04.05.35.01.73.03.99.26.28.25.33.67.36,1.04.07.91.14,1.82.22,2.73,0,.23.03.48-.12.65-.16.2-.45.23-.7.24-3.94.13-7.88-.12-11.81-.38-2.92-.19-5.86-.37-8.79-.19-2.09.13-4.37.41-6.13-.74-.09-.06-.17-.12-.23-.2-.06-.07-.1-.16-.13-.25-.56-1.44-.72-3.03-.44-4.55.02-.12.05-.24.13-.33.13-.13.33-.14.51-.14,2.38.03,4.77.06,7.15.09"/>
      <path class="cls-24" d="M164.67,156.38c-.54.02-1.05.18-1.56.34-.24.07-.51.17-.61.4-.05.11-.05.23-.05.35-.01.62-.02,1.23-.04,1.85"/>
      <path class="cls-24" d="M202.53,160.13c-1.59.03-3.17.06-4.75.09-.2.01-.4.01-.58.09-.4.18-.54.66-.64,1.08-.29,1.2-.58,2.44-.31,3.63.05.19.1.38.24.52.2.21.52.24.81.25.86.04,1.71.03,2.56-.04"/>
      <path class="cls-24" d="M172.38,173.08v.19c-.02.64-.02,1.28,0,1.92.02.65.07,1.35.5,1.83.53.59,1.43.64,2.22.65,3.26.02,6.52.04,9.77.07.71,0,1.54-.05,1.94-.63.16-.24.23-.53.28-.82.11-.62.18-1.26.2-1.9.02-.38.02-.78-.18-1.11-.18-.3-.49-.49-.81-.61-.78-.3-1.64-.23-2.48-.22-3.52.04-7.01-1-10.53-.8-.14,0-.29.02-.4.09-.24.14-.3.45-.29.72.02.27.07.56-.02.81"/>
      <path class="cls-24" d="M218.28,118.21c-.02.97.08,1.95.29,2.91.09.41.22.84.52,1.14.41.41,1.05.47,1.64.51,1.17.07,2.34.14,3.51.22.16.01.31.02.44.11.24.16.24.5.3.78.21.9,1.22,1.38,2.14,1.47s1.86-.06,2.75.18"/>
      <path class="cls-24" d="M248.79,159.41c2.18-.28,4.38-.37,6.57-.28.6.02,1.27.09,1.67.55.14.17.24.37.29.59.06.21.09.45.11.67.08.79.09,1.59.05,2.39-.01.18-.03.38-.13.53-.18.25-.53.3-.83.31-1.64.1-3.27.11-4.91.02-.44-.02-.91-.05-1.31.16-.25.13-.45.39-.5.66-.03.15,0,.31.08.44.2.34.66.39,1.06.39.88.01,1.76-.03,2.63-.13.21-.03.43-.05.62.03.35.15.46.59.53.96.2,1.07.3,2.41-.6,3.04-.54.38-1.26.34-1.92.29-1.49-.11-2.98-.23-4.47-.34"/>
      <path class="cls-24" d="M231.9,164.56c-3.42.24-6.85-.38-10.28-.44-.19,0-.38,0-.57.01-.3.02-.6.06-.88.17-.08.04-.17.08-.23.15-.05.06-.08.14-.1.22-.31,1.09-.17,2.31.38,3.3.08.13.16.26.27.36.16.15.37.23.58.28.81.22,1.66.16,2.5.11,2.99-.16,5.99-.15,8.99-.15"/>
      <path class="cls-24" d="M213.53,176.5c4.27.05,8.53.4,12.78.74.59.05,1.17.09,1.74.25.21.06.43.14.59.29.29.28.34.71.36,1.11.05.88.04,1.77-.04,2.66-.01.13-.03.27-.1.39-.16.25-.52.27-.82.27-5.26-.14-10.52-.27-15.78-.4"/>
      <path class="cls-24" d="M265.98,171.9c-2.24.02-4.48-.09-6.7-.32-.63-.06-1.31-.13-1.85.21-.73.46-.87,1.46-.93,2.32-.03.39-.06.79-.09,1.18-.02.24-.03.5.09.7.22.37.74.39,1.16.38.91,0,1.83.07,2.72.24.67.13,1.4.37,1.69.98.33.69-.04,1.65.5,2.2.33.33.85.35,1.32.34,1.7-.01,3.4-.02,5.1-.04"/>
      <path class="cls-24" d="M158.37,137.64c-.01,1.2.04,2.39.16,3.58.07.67.19,1.41.71,1.85.4.33.94.42,1.45.47,1.22.13,2.46.16,3.69.08.16,0,.34-.02.48-.1.25-.15.36-.46.44-.74.27-.97.53-1.97.48-2.98-.06-1.01-.48-2.05-1.32-2.61-.69-.46-1.57-.55-2.39-.48-.83.06-1.64.26-2.47.3-.25.02-.51.02-.72.14-.16.1-.28.28-.28.46,0,.06.02.11.05.17"/>
      <path class="cls-25" d="M57.33,225.86c3.87-2.39,6.44-6.36,9.09-10.06.68-.94,1.48-1.94,2.61-2.13.75-.13,1.52.12,2.21.45.82.39,1.58.89,2.35,1.37,4.95,3.07,10.25,5.56,15.78,7.39"/>
      <path class="cls-25" d="M118.33,217.5c1.66-3.18,3.81-6.11,6.35-8.63.33-.32.71-.66,1.16-.65.51.02.89.45,1.21.86,4.9,6.27,10.14,12.28,15.67,18,1.08,1.12,2.21,2.25,3.62,2.89,4.4,2,9.86-1.33,14.3.59,1.87.81,3.24,2.44,4.84,3.69,1.61,1.26,3.84,2.17,5.66,1.26,1.06-.53,1.76-1.57,2.41-2.57,2.79-4.26,5.59-8.53,8.38-12.8.35-.54.73-1.1,1.33-1.34.59-.24,1.43.04,1.52.67"/>
      <path class="cls-25" d="M184.82,219.51c.13.09.25.19.38.28"/>
      <path class="cls-25" d="M206.74,225.92c2.72,2.5,5.69,4.71,8.85,6.6.32.19.69.38,1.04.28.21-.07.37-.23.53-.38,2.21-2.21,4.42-4.42,6.63-6.62.22-.22.49-.46.8-.42.18.02.34.14.47.26,1,.89,1.58,2.14,2.15,3.35,2.15,4.57,4.55,9.13,8.11,12.71"/>
      <path class="cls-25" d="M235.36,241.81c4.68-1.98,8.54-5.59,11.61-9.65.01-.01.02-.03.03-.04,1.68-2.23,3.14-4.6,4.51-7.02,1.15-2.02,2.24-4.08,3.34-6.12.28-.51.68-1.1,1.26-1.07.35.02.63.25.9.48,1.52,1.33,3.05,2.65,4.58,3.97.17.16.36.32.59.36.26.05.53-.07.76-.19,1.47-.76,2.62-1.99,3.73-3.22,2.58-2.87,5.05-5.84,7.39-8.9"/>
      <path class="cls-25" d="M145.93,211.73s.03.03.05.04"/>
      <path class="cls-25" d="M145.93,211.73c-.11,1.32,0,2.64.3,3.93.04.18.09.37.22.5.19.2.5.22.77.23,3.8.09,7.59.16,11.39.2.59,0,1.22.02,1.7.36s.68,1.13.24,1.52c-.28.24-.7.23-1.07.21-.91-.04-1.81-.09-2.72-.14-.15-.01-.31-.02-.45.06-.23.13-.27.46-.27.73-.01.96.09,1.93.29,2.87.03.13.06.27.17.36.1.08.24.09.38.09,2.04.03,4.07.07,6.11.1,4.17.07,8.35.14,12.49-.37.21-.03.43-.06.59-.21.18-.16.21-.43.24-.67.09-.75.17-1.5.25-2.25.02-.16.04-.34-.03-.49-.13-.26-.47-.34-.76-.38-2.21-.32-4.45-.52-6.69-.59-.17-.01-.35-.01-.5-.11-.24-.16-.28-.49-.29-.78-.01-.28-.02-.56-.02-.84,0-.08,0-.17.06-.23.06-.09.18-.09.29-.1.92-.01,1.84-.02,2.77-.04.15,0,.31-.01.44-.1s.18-.27.22-.43c.24-.98.27-2.02.09-3.01-.04-.21-.09-.43-.23-.6-.24-.28-.67-.31-1.04-.31-8.05-.09-16.1-.18-24.14-.27-.26,0-.53,0-.73.16-.19.15-.24.46-.07.6Z"/>
      <line class="cls-25" x1="145.93" y1="211.72" x2="145.93" y2="211.73"/>
      <path class="cls-25" d="M236.14,219.72c-1.97-.05-3.95-.08-5.92-.08-.42,0-.87.01-1.21.26-.45.34-.52.98-.56,1.54-.01.16-.02.33.01.49.09.51.56.88,1.05,1.03s1.02.12,1.54.1c2.03-.06,4.07.16,6.09.37.37.04.79.1,1.01.4.27.36.11.88.22,1.31.01.09.05.18.12.22.06.04.13.05.19.06.44.05.87.1,1.31.15.39.05.81.1,1.14.32.33.23.54.69.35,1.04-.22.41-.79.44-1.25.42-2.08-.1-4.15-.2-6.23-.3-.18,0-.38,0-.5.13-.06.06-.08.16-.11.24-.21.88-.32,1.77-.32,2.67-.01.36.02.75.24,1.03.3.38.83.45,1.31.49,4.06.32,8.13.47,12.2.44"/>
      <path class="cls-25" d="M236.14,219.73c4.88.08,9.75.35,14.61.8.19.02.39.04.52.18.13.13.15.33.17.51.03.42.06.85-.02,1.26-.09.42-.32.82-.69,1.02-.35.19-.77.17-1.16.15-.45-.02-.9-.04-1.35-.07-.27-.01-.58-.01-.78.18-.29.28-.12.82.23,1.03.35.22.79.2,1.19.17.82-.04,1.65-.09,2.46.03"/>
      <path class="cls-25" d="M273.99,206.57c-2.86-.31-5.73-.46-8.6-.47-.62,0-1.37.07-1.66.62-.14.25-.14.55-.14.84,0,.4,0,.81.1,1.2.03.13.07.26.16.37.17.22.46.29.74.33,3.15.53,6.44-.29,9.56.42"/>
    </g>
  </g>
  <path class="cls-3" d="M118.09,161.89s.03,0,.05-.01l-.2.03s.09,0,.13,0l-.2-.03s.08.02.13.03l-.18-.08c.06.03.11.06.16.09l-.15-.12s.09.08.13.13l-.12-.15c.05.07.09.15.13.23l-.08-.18c.07.19.13.39.16.59l-.03-.2c0,.05,0,.11,0,.16l.03-.2s-.02.07-.03.1l.08-.18s-.04.08-.07.11l.12-.15s-.08.09-.13.13l.15-.12c-.06.04-.12.08-.18.1l.18-.08c-.08.03-.16.05-.24.07l.2-.03c-.1.01-.2.01-.3,0l.2.03c-.1-.02-.19-.04-.29-.08l.18.08c-.08-.04-.16-.08-.24-.14l.15.12c-.07-.05-.12-.11-.18-.17l.12.15c-.05-.06-.08-.12-.12-.19l.08.18c-.03-.07-.05-.14-.06-.22l.03.2c0-.08,0-.15,0-.23l-.03.2c.01-.09.04-.18.07-.26l-.08.18c.03-.08.08-.15.13-.22l-.12.15c.06-.07.12-.14.19-.19l-.15.12c.06-.04.12-.08.19-.11l-.18.08c.06-.02.13-.04.19-.05l-.2.03s.05,0,.07,0c.2,0,.39-.08.53-.22.13-.13.23-.34.22-.53s-.07-.4-.22-.53-.33-.23-.53-.22c-.15,0-.3.02-.44.07-.22.08-.36.17-.54.31-.24.19-.39.46-.51.74-.23.58-.07,1.25.36,1.7.21.22.48.37.77.47s.61.1.92.05.62-.22.83-.45c.15-.16.26-.34.32-.56.06-.25.03-.5-.03-.74-.09-.38-.22-.74-.48-1.04-.32-.37-.83-.51-1.29-.41-.38.09-.64.55-.52.92.13.4.51.62.92.52h0Z"/>
  <path class="cls-3" d="M117.31,162.62c.97,0,.97-1.5,0-1.5s-.97,1.5,0,1.5h0Z"/>
</svg>